<svg fill="none">
    
    <symbol id="messege" xmlns="http://www.w3.org/2000/svg" viewBox="0 0 30 30" fill="none">
        <path d="M23.0883 21.0375L23.5758 24.9875C23.7008 26.025 22.5883 26.75 21.7008 26.2125L16.4633 23.1C15.8883 23.1 15.3258 23.0625 14.7758 22.9875C15.7008 21.9 16.2508 20.525 16.2508 19.0375C16.2508 15.4875 13.1758 12.6125 9.37579 12.6125C7.92579 12.6125 6.58829 13.025 5.47579 13.75C5.43829 13.4375 5.42578 13.125 5.42578 12.8C5.42578 7.11249 10.3633 2.5 16.4633 2.5C22.5633 2.5 27.5008 7.11249 27.5008 12.8C27.5008 16.175 25.7633 19.1625 23.0883 21.0375Z" stroke="white" stroke-width="1.8" stroke-linecap="round" stroke-linejoin="round"/>
        <path d="M16.25 19.0372C16.25 20.5247 15.7 21.8998 14.775 22.9873C13.5375 24.4873 11.575 25.4498 9.375 25.4498L6.1125 27.3872C5.5625 27.7247 4.8625 27.2623 4.9375 26.6248L5.25 24.1623C3.575 22.9998 2.5 21.1372 2.5 19.0372C2.5 16.8372 3.67501 14.8998 5.47501 13.7498C6.58751 13.0248 7.925 12.6123 9.375 12.6123C13.175 12.6123 16.25 15.4872 16.25 19.0372Z" stroke="white" stroke-width="1.8" stroke-linecap="round" stroke-linejoin="round"/>
    </symbol>
    <symbol id="fill-messege" xmlns="http://www.w3.org/2000/svg" viewBox="0 0 30 30">
        <path d="M23.087 21.0375L23.5745 24.9875C23.6995 26.025 22.587 26.75 21.6995 26.2125L17.3745 23.6375C17.0745 23.4625 16.9995 23.0875 17.162 22.7875C17.787 21.6375 18.1245 20.3375 18.1245 19.0375C18.1245 14.4625 14.1995 10.7375 9.3745 10.7375C8.387 10.7375 7.4245 10.8875 6.5245 11.1875C6.062 11.3375 5.612 10.9125 5.7245 10.4375C6.862 5.8875 11.237 2.5 16.462 2.5C22.562 2.5 27.4995 7.1125 27.4995 12.8C27.4995 16.175 25.762 19.1625 23.087 21.0375Z" fill="white"/>
        <path d="M16.25 19.0373C16.25 20.5248 15.7 21.8998 14.775 22.9873C13.5375 24.4873 11.575 25.4498 9.375 25.4498L6.1125 27.3873C5.5625 27.7248 4.8625 27.2623 4.9375 26.6248L5.25 24.1623C3.575 22.9998 2.5 21.1373 2.5 19.0373C2.5 16.8373 3.675 14.8998 5.475 13.7498C6.5875 13.0248 7.925 12.6123 9.375 12.6123C13.175 12.6123 16.25 15.4873 16.25 19.0373Z" fill="white"/>
    </symbol>
    <symbol id="userbox"  xmlns="http://www.w3.org/2000/svg" viewBox="0 0 30 30" fill="none">
        <path d="M22.6742 27.0244C21.5742 27.3494 20.2742 27.4995 18.7492 27.4995H11.2492C9.72422 27.4995 8.42422 27.3494 7.32422 27.0244C7.59922 23.7744 10.9367 21.2119 14.9992 21.2119C19.0617 21.2119 22.3992 23.7744 22.6742 27.0244Z" stroke="white" stroke-width="1.8" stroke-linecap="round" stroke-linejoin="round"/>
        <path d="M18.75 2.5H11.25C5 2.5 2.5 5 2.5 11.25V18.75C2.5 23.475 3.925 26.0625 7.325 27.025C7.6 23.775 10.9375 21.2125 15 21.2125C19.0625 21.2125 22.4 23.775 22.675 27.025C26.075 26.0625 27.5 23.475 27.5 18.75V11.25C27.5 5 25 2.5 18.75 2.5ZM15 17.7125C12.525 17.7125 10.525 15.7 10.525 13.225C10.525 10.75 12.525 8.75 15 8.75C17.475 8.75 19.475 10.75 19.475 13.225C19.475 15.7 17.475 17.7125 15 17.7125Z" stroke="white" stroke-width="1.8" stroke-linecap="round" stroke-linejoin="round"/>
        <path d="M19.4754 13.225C19.4754 15.7 17.4754 17.7125 15.0004 17.7125C12.5254 17.7125 10.5254 15.7 10.5254 13.225C10.5254 10.75 12.5254 8.75 15.0004 8.75C17.4754 8.75 19.4754 10.75 19.4754 13.225Z" stroke="white" stroke-width="1.8" stroke-linecap="round" stroke-linejoin="round"/>
    </symbol>
    <symbol id="fill-userbox" xmlns="http://www.w3.org/2000/svg" viewBox="0 0 30 30">
        <path d="M20.2375 2.5H9.7625C5.2125 2.5 2.5 5.2125 2.5 9.7625V20.2375C2.5 23.75 4.1125 26.1625 6.95 27.075C7.775 27.3625 8.725 27.5 9.7625 27.5H20.2375C21.275 27.5 22.225 27.3625 23.05 27.075C25.8875 26.1625 27.5 23.75 27.5 20.2375V9.7625C27.5 5.2125 24.7875 2.5 20.2375 2.5ZM25.625 20.2375C25.625 22.9125 24.575 24.6 22.4625 25.3C21.25 22.9125 18.375 21.2125 15 21.2125C11.625 21.2125 8.7625 22.9 7.5375 25.3H7.525C5.4375 24.625 4.375 22.925 4.375 20.25V9.7625C4.375 6.2375 6.2375 4.375 9.7625 4.375H20.2375C23.7625 4.375 25.625 6.2375 25.625 9.7625V20.2375Z" fill="white"/>
        <path d="M15.0004 10C12.5254 10 10.5254 12 10.5254 14.475C10.5254 16.95 12.5254 18.9625 15.0004 18.9625C17.4754 18.9625 19.4754 16.95 19.4754 14.475C19.4754 12 17.4754 10 15.0004 10Z" fill="white"/>
    </symbol>
    <symbol id="plus" viewBox="0 0 24 24" fill="none" xmlns="http://www.w3.org/2000/svg">
        <path d="M8 12H16" stroke-width="1.5" stroke-linecap="round" stroke-linejoin="round"/>
        <path d="M12 16V8" stroke-width="1.5" stroke-linecap="round" stroke-linejoin="round"/>
        <path d="M9 22H15C20 22 22 20 22 15V9C22 4 20 2 15 2H9C4 2 2 4 2 9V15C2 20 4 22 9 22Z" stroke-width="1.5" stroke-linecap="round" stroke-linejoin="round"/>
    </symbol>
    <symbol id="smile" viewBox="0 0 24 24" fill="none" xmlns="http://www.w3.org/2000/svg">
        <path d="M9 22H15C20 22 22 20 22 15V9C22 4 20 2 15 2H9C4 2 2 4 2 9V15C2 20 4 22 9 22Z" stroke-width="1.5" stroke-linecap="round" stroke-linejoin="round"/>
        <path d="M15.5 9.75C16.3284 9.75 17 9.07843 17 8.25C17 7.42157 16.3284 6.75 15.5 6.75C14.6716 6.75 14 7.42157 14 8.25C14 9.07843 14.6716 9.75 15.5 9.75Z" stroke-width="1.5" stroke-miterlimit="10" stroke-linecap="round" stroke-linejoin="round"/>
        <path d="M8.5 9.75C9.32843 9.75 10 9.07843 10 8.25C10 7.42157 9.32843 6.75 8.5 6.75C7.67157 6.75 7 7.42157 7 8.25C7 9.07843 7.67157 9.75 8.5 9.75Z" stroke-width="1.5" stroke-miterlimit="10" stroke-linecap="round" stroke-linejoin="round"/>
        <path d="M8.4 13.3H15.6C16.1 13.3 16.5 13.7 16.5 14.2C16.5 16.69 14.49 18.7 12 18.7C9.51 18.7 7.5 16.69 7.5 14.2C7.5 13.7 7.9 13.3 8.4 13.3Z" stroke-width="1.5" stroke-miterlimit="10" stroke-linecap="round" stroke-linejoin="round"/>
    </symbol>
    <symbol id="smile-2" viewBox="0 0 22 22" fill="none" xmlns="http://www.w3.org/2000/svg">
        <path d="M10.8434 15.5925C9.53617 15.5522 8.29408 15.0126 7.37245 14.0847C7.23223 13.9435 7.04165 13.8638 6.84265 13.8631C6.64364 13.8624 6.45251 13.9408 6.31129 14.081C6.17007 14.2212 6.09034 14.4118 6.08964 14.6108C6.08893 14.8098 6.16732 15.0009 6.30754 15.1422L6.30755 15.1422C6.91976 15.7584 7.64737 16.2481 8.44882 16.5831C9.25027 16.9182 10.1099 17.0921 10.9785 17.0949C11.8472 17.0977 12.7079 16.9294 13.5115 16.5996C14.3148 16.2698 15.0453 15.7852 15.6614 15.1732L15.6906 15.1453L15.6912 15.1458L15.699 15.1361L15.7731 15.0451L15.7734 15.0453L15.7777 15.0391C15.8849 14.8848 15.9303 14.6959 15.9049 14.5097C15.8795 14.3235 15.7852 14.1537 15.6405 14.0338C15.4959 13.9138 15.3115 13.8526 15.1239 13.8621C14.9368 13.8715 14.76 13.9507 14.6283 14.0839L14.3993 14.3027C13.4224 15.1712 12.15 15.6328 10.8434 15.5925ZM18.4246 3.57548C16.4555 1.60634 13.7848 0.500098 11 0.500098C8.21523 0.500098 5.54451 1.60634 3.57538 3.57548C1.60625 5.54461 0.499998 8.21532 0.499998 11.0001C0.499998 13.7849 1.60625 16.4556 3.57538 18.4247C5.54451 20.3939 8.21523 21.5001 11 21.5001C13.7848 21.5001 16.4555 20.3939 18.4246 18.4247C20.3938 16.4556 21.5 13.7849 21.5 11.0001C21.5 8.21532 20.3938 5.54461 18.4246 3.57548ZM7.55585 2.68518C8.64778 2.23289 9.8181 2.0001 11 2.0001C13.3869 2.0001 15.6761 2.94831 17.364 4.63614C19.0518 6.32396 20 8.61315 20 11.0001C20 13.387 19.0518 15.6762 17.364 17.3641C15.6761 19.0519 13.3869 20.0001 11 20.0001C9.8181 20.0001 8.64778 19.7673 7.55585 19.315C6.46392 18.8627 5.47176 18.1998 4.63604 17.3641C3.80031 16.5283 3.13737 15.5362 2.68508 14.4442C2.23279 13.3523 2 12.182 2 11.0001C2 9.8182 2.23279 8.64788 2.68508 7.55595C3.13737 6.46402 3.80031 5.47186 4.63604 4.63614C5.47176 3.80041 6.46392 3.13747 7.55585 2.68518ZM15.2399 8.06015C14.9774 7.7976 14.6213 7.6501 14.25 7.6501C13.8787 7.6501 13.5226 7.7976 13.26 8.06015C12.9975 8.3227 12.85 8.67879 12.85 9.0501C12.85 9.4214 12.9975 9.7775 13.26 10.04C13.5226 10.3026 13.8787 10.4501 14.25 10.4501C14.6213 10.4501 14.9774 10.3026 15.2399 10.04C15.5025 9.7775 15.65 9.4214 15.65 9.0501C15.65 8.67879 15.5025 8.3227 15.2399 8.06015ZM8.73995 8.06015C8.4774 7.7976 8.1213 7.6501 7.75 7.6501C7.3787 7.6501 7.0226 7.7976 6.76005 8.06015C6.4975 8.3227 6.35 8.67879 6.35 9.0501C6.35 9.4214 6.4975 9.7775 6.76005 10.04C7.0226 10.3026 7.3787 10.4501 7.75 10.4501C8.1213 10.4501 8.4774 10.3026 8.73995 10.04C9.0025 9.7775 9.15 9.4214 9.15 9.0501C9.15 8.67879 9.0025 8.3227 8.73995 8.06015Z" fill="#01aa85" stroke-width="0.2"/>
    </symbol>
    <symbol id="voice" viewBox="0 0 24 24" fill="none" xmlns="http://www.w3.org/2000/svg">
        <path d="M12 15.5C14.21 15.5 16 13.71 16 11.5V6C16 3.79 14.21 2 12 2C9.79 2 8 3.79 8 6V11.5C8 13.71 9.79 15.5 12 15.5Z" stroke-width="1.5" stroke-linecap="round" stroke-linejoin="round"/>
        <path d="M4.35 9.6499V11.3499C4.35 15.5699 7.78 18.9999 12 18.9999C16.22 18.9999 19.65 15.5699 19.65 11.3499V9.6499" stroke-width="1.5" stroke-linecap="round" stroke-linejoin="round"/>
        <path d="M10.61 6.43012C11.51 6.10012 12.49 6.10012 13.39 6.43012" stroke-width="1.5" stroke-linecap="round" stroke-linejoin="round"/>
        <path d="M11.2 8.55007C11.73 8.41007 12.28 8.41007 12.81 8.55007" stroke-width="1.5" stroke-linecap="round" stroke-linejoin="round"/>
        <path d="M12 19V22" stroke-width="1.5" stroke-linecap="round" stroke-linejoin="round"/>
    </symbol>
    <symbol id="send" viewBox="0 0 20 20" fill="none" xmlns="http://www.w3.org/2000/svg">
        <path d="M5.4 4.32015L13.89 1.49015C17.7 0.220154 19.77 2.30015 18.51 6.11015L15.68 14.6002C13.78 20.3102 10.66 20.3102 8.76 14.6002L7.92 12.0802L5.4 11.2402C-0.309999 9.34015 -0.309999 6.23015 5.4 4.32015Z" stroke="white" stroke-width="1.5" stroke-linecap="round" stroke-linejoin="round"/>
        <path d="M8.11 11.6501L11.69 8.06006" stroke="white" stroke-width="1.5" stroke-linecap="round" stroke-linejoin="round"/>
    </symbol>
    <symbol id="arrow-right" viewBox="0 0 31 31" fill="none" xmlns="http://www.w3.org/2000/svg">
        <path d="M15.4938 14.4162L15.4938 5.84255L25.2922 15.641L15.4938 25.4395L15.4938 16.8658L5.69531 16.8658L5.69531 14.4162L15.4938 14.4162Z" fill="white"/>
    </symbol>
    <symbol id="landing-secure" viewBox="0 0 30 30" fill="none" xmlns="http://www.w3.org/2000/svg">
        <g clip-path="url(#clip0_1694_2408)">
            <path d="M15.0012 9.28442C11.8493 9.28442 9.28516 11.8486 9.28516 15.0003C9.28516 18.1522 11.8493 20.7164 15.0012 20.7164C18.1529 20.7164 20.7171 18.1522 20.7171 15.0003C20.7171 11.8486 18.1529 9.28442 15.0012 9.28442ZM18.3949 13.9238L14.2999 18.0188C14.1281 18.1906 13.9026 18.2767 13.6774 18.2767C13.4522 18.2767 13.2269 18.1909 13.0551 18.0188L11.4902 16.4539C11.1464 16.1103 11.1464 15.553 11.4902 15.2092C11.8337 14.8655 12.3911 14.8655 12.7349 15.2092L13.6774 16.1518L17.1502 12.6792C17.4938 12.3354 18.0511 12.3354 18.3949 12.6792C18.7386 13.0227 18.7386 13.5801 18.3949 13.9238Z" fill="#01AA85"/>
            <path d="M27.7434 8.13951L27.7425 8.11617C27.7294 7.82801 27.7207 7.52314 27.7154 7.18393C27.691 5.52981 26.376 4.16156 24.7217 4.06909C21.2724 3.8766 18.6041 2.75188 16.3243 0.529673L16.3048 0.511133C15.5612 -0.170703 14.4394 -0.170703 13.6956 0.511133L13.6761 0.529673C11.3962 2.75188 8.72792 3.8766 5.27868 4.06932C3.62456 4.16156 2.30941 5.52981 2.28492 7.18416C2.27988 7.52108 2.27095 7.82595 2.25791 8.11617L2.25654 8.17041C2.18947 11.6876 2.10616 16.065 3.57054 20.0381C4.37575 22.223 5.59522 24.1223 7.19488 25.6835C9.01677 27.4614 11.4031 28.8729 14.2874 29.8786C14.3813 29.9114 14.4788 29.9379 14.5781 29.9578C14.7182 29.9858 14.8592 29.9997 15.0002 29.9997C15.1412 29.9997 15.2824 29.9858 15.4222 29.9578C15.5216 29.9379 15.6198 29.9111 15.7141 29.8782C18.595 28.8707 20.9788 27.4585 22.7991 25.6807C24.398 24.1191 25.6175 22.2194 26.4234 20.034C27.8933 16.049 27.8102 11.6634 27.7434 8.13951ZM14.9997 22.4766C10.8771 22.4766 7.52332 19.1228 7.52332 15.0002C7.52332 10.8776 10.8771 7.52382 14.9997 7.52382C19.1221 7.52382 22.4761 10.8776 22.4761 15.0002C22.4761 19.1228 19.1221 22.4766 14.9997 22.4766Z" fill="#01AA85"/>
        </g>
        <defs>
        <clipPath id="clip0_1694_2408">
        <rect width="30" height="30" fill="white"/>
        </clipPath>
        </defs>
    </symbol>
    <symbol id="landing-doc" viewBox="0 0 24 24" fill="none" xmlns="http://www.w3.org/2000/svg">
        <path opacity="0.4" d="M16.191 2H7.81C4.77 2 3 3.78 3 6.83V17.16C3 20.26 4.77 22 7.81 22H16.191C19.28 22 21 20.26 21 17.16V6.83C21 3.78 19.28 2 16.191 2Z" fill="white"/>
        <path fill-rule="evenodd" clip-rule="evenodd" d="M8.08 6.6499V6.6599C7.649 6.6599 7.3 7.0099 7.3 7.4399C7.3 7.8699 7.649 8.2199 8.08 8.2199H11.069C11.5 8.2199 11.85 7.8699 11.85 7.4289C11.85 6.9999 11.5 6.6499 11.069 6.6499H8.08ZM15.92 12.7399H8.08C7.649 12.7399 7.3 12.3899 7.3 11.9599C7.3 11.5299 7.649 11.1789 8.08 11.1789H15.92C16.35 11.1789 16.7 11.5299 16.7 11.9599C16.7 12.3899 16.35 12.7399 15.92 12.7399ZM15.92 17.3099H8.08C7.78 17.3499 7.49 17.1999 7.33 16.9499C7.17 16.6899 7.17 16.3599 7.33 16.1099C7.49 15.8499 7.78 15.7099 8.08 15.7399H15.92C16.319 15.7799 16.62 16.1199 16.62 16.5299C16.62 16.9289 16.319 17.2699 15.92 17.3099Z" fill="white"/>
    </symbol>
    <symbol id="notification" xmlns="http://www.w3.org/2000/svg" viewBox="0 0 30 30" fill="none">
        <path d="M15.0262 3.6377C10.8887 3.6377 7.52621 7.0002 7.52621 11.1377V14.7502C7.52621 15.5127 7.20121 16.6752 6.81371 17.3252L5.37621 19.7127C4.48871 21.1877 5.10121 22.8252 6.72621 23.3752C12.1137 25.1752 17.9262 25.1752 23.3137 23.3752C24.8262 22.8752 25.4887 21.0877 24.6637 19.7127L23.2262 17.3252C22.8512 16.6752 22.5262 15.5127 22.5262 14.7502V11.1377C22.5262 7.0127 19.1512 3.6377 15.0262 3.6377Z" stroke="white" stroke-width="1.8" stroke-miterlimit="10" stroke-linecap="round"/>
        <path d="M17.3379 4.00078C16.9504 3.88828 16.5504 3.80078 16.1379 3.75078C14.9379 3.60078 13.7879 3.68828 12.7129 4.00078C13.0754 3.07578 13.9754 2.42578 15.0254 2.42578C16.0754 2.42578 16.9754 3.07578 17.3379 4.00078Z" stroke="white" stroke-width="1.8" stroke-miterlimit="10" stroke-linecap="round" stroke-linejoin="round"/>
        <path d="M18.7734 23.8242C18.7734 25.8867 17.0859 27.5742 15.0234 27.5742C13.9984 27.5742 13.0484 27.1492 12.3734 26.4742C11.6984 25.7992 11.2734 24.8492 11.2734 23.8242" stroke="white" stroke-width="1.8" stroke-miterlimit="10"/>
    </symbol>
    <symbol id="fill-notification" xmlns="http://www.w3.org/2000/svg" viewBox="0 0 30 30" >
        <path d="M24.1754 18.1125L22.9254 16.0375C22.6629 15.575 22.4254 14.7 22.4254 14.1875V11.025C22.4254 8.0875 20.7004 5.55 18.2129 4.3625C17.5629 3.2125 16.3629 2.5 14.9879 2.5C13.6254 2.5 12.4004 3.2375 11.7504 4.4C9.31292 5.6125 7.62542 8.125 7.62542 11.025V14.1875C7.62542 14.7 7.38792 15.575 7.12542 16.025L5.86292 18.1125C5.36292 18.95 5.25042 19.875 5.56292 20.725C5.86292 21.5625 6.57542 22.2125 7.50042 22.525C9.92542 23.35 12.4754 23.75 15.0254 23.75C17.5754 23.75 20.1254 23.35 22.5504 22.5375C23.4254 22.25 24.1004 21.5875 24.4254 20.725C24.7504 19.8625 24.6629 18.9125 24.1754 18.1125Z" fill="white"/>
        <path d="M18.5371 25.0125C18.0121 26.4625 16.6246 27.5 14.9996 27.5C14.0121 27.5 13.0371 27.1 12.3496 26.3875C11.9496 26.0125 11.6496 25.5125 11.4746 25C11.6371 25.025 11.7996 25.0375 11.9746 25.0625C12.2621 25.1 12.5621 25.1375 12.8621 25.1625C13.5746 25.225 14.2996 25.2625 15.0246 25.2625C15.7371 25.2625 16.4496 25.225 17.1496 25.1625C17.4121 25.1375 17.6746 25.125 17.9246 25.0875C18.1246 25.0625 18.3246 25.0375 18.5371 25.0125Z" fill="white"/>
    </symbol>
    <symbol id="document" xmlns="http://www.w3.org/2000/svg" viewBox="0 0 30 30" fill="none">
        <path d="M27.5 12.5V18.75C27.5 25 25 27.5 18.75 27.5H11.25C5 27.5 2.5 25 2.5 18.75V11.25C2.5 5 5 2.5 11.25 2.5H17.5" stroke="white" stroke-width="1.8" stroke-linecap="round" stroke-linejoin="round"/>
        <path d="M27.5 12.5H22.5C18.75 12.5 17.5 11.25 17.5 7.5V2.5L27.5 12.5Z" stroke="white" stroke-width="1.8" stroke-linecap="round" stroke-linejoin="round"/>
    </symbol>
    <symbol id="fill-document" xmlns="http://www.w3.org/2000/svg" viewBox="0 0 30 30">
        <path d="M25.625 12.7375H22.0125C19.05 12.7375 16.6375 10.325 16.6375 7.3625V3.75C16.6375 3.0625 16.075 2.5 15.3875 2.5H10.0875C6.2375 2.5 3.125 5 3.125 9.4625V20.5375C3.125 25 6.2375 27.5 10.0875 27.5H19.9125C23.7625 27.5 26.875 25 26.875 20.5375V13.9875C26.875 13.3 26.3125 12.7375 25.625 12.7375Z" fill="white"/>
        <path d="M19.7496 2.76213C19.2371 2.24963 18.3496 2.59963 18.3496 3.31213V7.67462C18.3496 9.49962 19.8996 11.0121 21.7871 11.0121C22.9746 11.0246 24.6246 11.0246 26.0371 11.0246C26.7496 11.0246 27.1246 10.1871 26.6246 9.68712C24.8246 7.87462 21.5996 4.61213 19.7496 2.76213Z" fill="white"/>
    </symbol>
    <symbol id="favourite" xmlns="http://www.w3.org/2000/svg" viewBox="0 0 30 30" fill="none">
        <path d="M17.1631 4.3873L19.3631 8.78731C19.6631 9.39981 20.4631 9.9873 21.1381 10.0998L25.1256 10.7623C27.6756 11.1873 28.2756 13.0373 26.4381 14.8623L23.3381 17.9623C22.8131 18.4873 22.5256 19.4998 22.6881 20.2248L23.5756 24.0623C24.2756 27.0998 22.6631 28.2748 19.9756 26.6873L16.2381 24.4748C15.5631 24.0748 14.4506 24.0748 13.7631 24.4748L10.0256 26.6873C7.35062 28.2748 5.72562 27.0873 6.42562 24.0623L7.31312 20.2248C7.47562 19.4998 7.18812 18.4873 6.66312 17.9623L3.56312 14.8623C1.73812 13.0373 2.32562 11.1873 4.87562 10.7623L8.86312 10.0998C9.52562 9.9873 10.3256 9.39981 10.6256 8.78731L12.8256 4.3873C14.0256 1.9998 15.9756 1.9998 17.1631 4.3873Z" stroke="white" stroke-width="1.8" stroke-linecap="round" stroke-linejoin="round"/>
    </symbol>
    <symbol id="fill-favourite" xmlns="http://www.w3.org/2000/svg" viewBox="0 0 30 30" >
        <path d="M17.1631 4.3873L19.3631 8.7873C19.6631 9.39981 20.4631 9.9873 21.1381 10.0998L25.1256 10.7623C27.6756 11.1873 28.2756 13.0373 26.4381 14.8623L23.3381 17.9623C22.8131 18.4873 22.5256 19.4998 22.6881 20.2248L23.5756 24.0623C24.2756 27.0998 22.6631 28.2748 19.9756 26.6873L16.2381 24.4748C15.5631 24.0748 14.4506 24.0748 13.7631 24.4748L10.0256 26.6873C7.35062 28.2748 5.72562 27.0873 6.42562 24.0623L7.31312 20.2248C7.47562 19.4998 7.18812 18.4873 6.66312 17.9623L3.56312 14.8623C1.73812 13.0373 2.32562 11.1873 4.87562 10.7623L8.86312 10.0998C9.52562 9.9873 10.3256 9.39981 10.6256 8.7873L12.8256 4.3873C14.0256 1.9998 15.9756 1.9998 17.1631 4.3873Z" fill="white"/>
    </symbol>
    <symbol id="setting" xmlns="http://www.w3.org/2000/svg" viewBox="0 0 30 30" fill="none">
        <path d="M15 18.75C17.0711 18.75 18.75 17.0711 18.75 15C18.75 12.9289 17.0711 11.25 15 11.25C12.9289 11.25 11.25 12.9289 11.25 15C11.25 17.0711 12.9289 18.75 15 18.75Z" stroke="white" stroke-width="1.8" stroke-miterlimit="10" stroke-linecap="round" stroke-linejoin="round"/>
        <path d="M2.5 16.1008V13.9008C2.5 12.6008 3.5625 11.5258 4.875 11.5258C7.1375 11.5258 8.0625 9.92578 6.925 7.96328C6.275 6.83828 6.6625 5.37578 7.8 4.72578L9.9625 3.48828C10.95 2.90078 12.225 3.25078 12.8125 4.23828L12.95 4.47577C14.075 6.43828 15.925 6.43828 17.0625 4.47577L17.2 4.23828C17.7875 3.25078 19.0625 2.90078 20.05 3.48828L22.2125 4.72578C23.35 5.37578 23.7375 6.83828 23.0875 7.96328C21.95 9.92578 22.875 11.5258 25.1375 11.5258C26.4375 11.5258 27.5125 12.5883 27.5125 13.9008V16.1008C27.5125 17.4008 26.45 18.4758 25.1375 18.4758C22.875 18.4758 21.95 20.0758 23.0875 22.0383C23.7375 23.1758 23.35 24.6258 22.2125 25.2758L20.05 26.5133C19.0625 27.1008 17.7875 26.7508 17.2 25.7633L17.0625 25.5258C15.9375 23.5633 14.0875 23.5633 12.95 25.5258L12.8125 25.7633C12.225 26.7508 10.95 27.1008 9.9625 26.5133L7.8 25.2758C6.6625 24.6258 6.275 23.1633 6.925 22.0383C8.0625 20.0758 7.1375 18.4758 4.875 18.4758C3.5625 18.4758 2.5 17.4008 2.5 16.1008Z" stroke="white" stroke-width="1.8" stroke-miterlimit="10" stroke-linecap="round" stroke-linejoin="round"/>
    </symbol>
    <symbol id="fill-setting" xmlns="http://www.w3.org/2000/svg" viewBox="0 0 30 30">
        <path d="M25.125 11.5248C22.8625 11.5248 21.9375 9.9248 23.0625 7.9623C23.7125 6.8248 23.325 5.3748 22.1875 4.7248L20.025 3.4873C19.0375 2.8998 17.7625 3.2498 17.175 4.2373L17.0375 4.4748C15.9125 6.4373 14.0625 6.4373 12.925 4.4748L12.7875 4.2373C12.225 3.2498 10.95 2.8998 9.9625 3.4873L7.8 4.7248C6.6625 5.3748 6.275 6.8373 6.925 7.9748C8.0625 9.9248 7.1375 11.5248 4.875 11.5248C3.575 11.5248 2.5 12.5873 2.5 13.8998V16.0998C2.5 17.3998 3.5625 18.4748 4.875 18.4748C7.1375 18.4748 8.0625 20.0748 6.925 22.0373C6.275 23.1748 6.6625 24.6248 7.8 25.2748L9.9625 26.5123C10.95 27.0998 12.225 26.7498 12.8125 25.7623L12.95 25.5248C14.075 23.5623 15.925 23.5623 17.0625 25.5248L17.2 25.7623C17.7875 26.7498 19.0625 27.0998 20.05 26.5123L22.2125 25.2748C23.35 24.6248 23.7375 23.1623 23.0875 22.0373C21.95 20.0748 22.875 18.4748 25.1375 18.4748C26.4375 18.4748 27.5125 17.4123 27.5125 16.0998V13.8998C27.5 12.5998 26.4375 11.5248 25.125 11.5248ZM15 19.0623C12.7625 19.0623 10.9375 17.2373 10.9375 14.9998C10.9375 12.7623 12.7625 10.9373 15 10.9373C17.2375 10.9373 19.0625 12.7623 19.0625 14.9998C19.0625 17.2373 17.2375 19.0623 15 19.0623Z" fill="white"/>
    </symbol>
    <symbol id="mode" xmlns="http://www.w3.org/2000/svg" viewBox="0 0 30 30" fill="none">
        <path d="M2.5359 15.5252C2.9859 21.9627 8.4484 27.2002 14.9859 27.4877C19.5984 27.6877 23.7234 25.5377 26.1984 22.1502C27.2234 20.7627 26.6734 19.8377 24.9609 20.1502C24.1234 20.3002 23.2609 20.3627 22.3609 20.3252C16.2484 20.0752 11.2484 14.9627 11.2234 8.9252C11.2109 7.3002 11.5484 5.7627 12.1609 4.3627C12.8359 2.8127 12.0234 2.0752 10.4609 2.7377C5.5109 4.8252 2.1234 9.8127 2.5359 15.5252Z" stroke="white" stroke-width="1.8" stroke-linecap="round" stroke-linejoin="round"/>
    </symbol>
    <symbol id="fill-mode" xmlns="http://www.w3.org/2000/svg" viewBox="0 0 30 30">
        <path d="M2.5359 15.5252C2.9859 21.9627 8.4484 27.2002 14.9859 27.4877C19.5984 27.6877 23.7234 25.5377 26.1984 22.1502C27.2234 20.7627 26.6734 19.8377 24.9609 20.1502C24.1234 20.3002 23.2609 20.3627 22.3609 20.3252C16.2484 20.0752 11.2484 14.9627 11.2234 8.9252C11.2109 7.3002 11.5484 5.7627 12.1609 4.3627C12.8359 2.8127 12.0234 2.0752 10.4609 2.7377C5.5109 4.8252 2.1234 9.8127 2.5359 15.5252Z" fill="white"/>
    </symbol>
    <symbol id="signOut" xmlns="http://www.w3.org/2000/svg" viewBox="0 0 30 30" fill="none">
        <path d="M11.125 9.4498C11.5125 4.9498 13.825 3.1123 18.8875 3.1123H19.05C24.6375 3.1123 26.875 5.34981 26.875 10.9373V19.0873C26.875 24.6748 24.6375 26.9123 19.05 26.9123H18.8875C13.8625 26.9123 11.55 25.0998 11.1375 20.6748" stroke="white" stroke-width="1.5" stroke-linecap="round" stroke-linejoin="round"/>
        <path d="M18.7504 15H4.52539" stroke="white" stroke-width="1.5" stroke-linecap="round" stroke-linejoin="round"/>
        <path d="M7.3125 10.8125L3.125 15L7.3125 19.1875" stroke="white" stroke-width="1.5" stroke-linecap="round" stroke-linejoin="round"/>
    </symbol>
    <symbol id="fill-signOut" xmlns="http://www.w3.org/2000/svg" viewBox="0 0 30 30">
        <path d="M21 2.5H17.75C13.75 2.5 11.25 5 11.25 9V14.0625H19.0625C19.575 14.0625 20 14.4875 20 15C20 15.5125 19.575 15.9375 19.0625 15.9375H11.25V21C11.25 25 13.75 27.5 17.75 27.5H20.9875C24.9875 27.5 27.4875 25 27.4875 21V9C27.5 5 25 2.5 21 2.5Z" fill="white"/>
        <path d="M5.69883 14.0623L8.28633 11.4748C8.47383 11.2873 8.56133 11.0498 8.56133 10.8123C8.56133 10.5748 8.47383 10.3248 8.28633 10.1498C7.92383 9.7873 7.32383 9.7873 6.96133 10.1498L2.77383 14.3373C2.41133 14.6998 2.41133 15.2998 2.77383 15.6623L6.96133 19.8498C7.32383 20.2123 7.92383 20.2123 8.28633 19.8498C8.64883 19.4873 8.64883 18.8873 8.28633 18.5248L5.69883 15.9373H11.2488V14.0623H5.69883V14.0623Z" fill="white"/>
    </symbol>
    <symbol id="menu" xmlns="http://www.w3.org/2000/svg" viewBox="0 0 30 30" fill="none">
        <path d="M14 5C14 3.9 13.1 3 12 3C10.9 3 10 3.9 10 5C10 6.1 10.9 7 12 7C13.1 7 14 6.1 14 5Z" fill="#2C2C2C"/>
        <path d="M14 19C14 17.9 13.1 17 12 17C10.9 17 10 17.9 10 19C10 20.1 10.9 21 12 21C13.1 21 14 20.1 14 19Z" fill="#2C2C2C"/>
        <path d="M14 12C14 10.9 13.1 10 12 10C10.9 10 10 10.9 10 12C10 13.1 10.9 14 12 14C13.1 14 14 13.1 14 12Z" fill="#2C2C2C"/>
    </symbol>
    <symbol id="pin" xmlns="http://www.w3.org/2000/svg" viewBox="0 0 20 20" >
        <path d="M12.2851 0.902345C12.3672 0.902198 12.4486 0.918241 12.5245 0.949555C12.6004 0.98087 12.6694 1.02684 12.7276 1.08484L18.9151 7.27234C19.0322 7.38955 19.0981 7.54849 19.0981 7.71422C19.0981 7.87995 19.0322 8.03889 18.9151 8.1561C18.3151 8.75609 17.5751 8.89109 17.0363 8.89109C16.8151 8.89109 16.6176 8.86859 16.4613 8.84234L12.5438 12.7598C12.6469 13.1754 12.7139 13.599 12.7438 14.0261C12.8013 14.9036 12.7038 16.1348 11.8438 16.9948C11.7266 17.112 11.5677 17.1778 11.4019 17.1778C11.2362 17.1778 11.0773 17.112 10.9601 16.9948L7.42382 13.4598L3.44632 17.4373C3.20257 17.6811 1.92257 18.5648 1.67882 18.3211C1.43507 18.0773 2.31882 16.7961 2.56257 16.5536L6.54007 12.5761L3.00507 9.03984C2.8879 8.92264 2.82208 8.7637 2.82208 8.59797C2.82208 8.43224 2.8879 8.2733 3.00507 8.1561C3.86507 7.29609 5.09632 7.19734 5.97382 7.25609C6.40089 7.28602 6.82456 7.35294 7.24007 7.45609L11.1576 3.53984C11.1249 3.34949 11.1081 3.15674 11.1076 2.96359C11.1076 2.42609 11.2426 1.68609 11.8438 1.08484C11.9609 0.968009 12.1196 0.90238 12.2851 0.902345Z"/>
    </symbol>
    <symbol id="right-2" xmlns="http://www.w3.org/2000/svg" viewBox="0 0 20 20">
        <path d="M0.341797 11.1754L5.00013 15.8337L6.17513 14.6504L1.52513 10.0004M18.5335 4.65039L9.7168 13.4754L6.25013 10.0004L5.05846 11.1754L9.7168 15.8337L19.7168 5.83372M15.0001 5.83372L13.8251 4.65039L8.53346 9.94206L9.7168 11.1171L15.0001 5.83372Z" />
    </symbol>
        <symbol id="muted" xmlns="http://www.w3.org/2000/svg" viewBox="0 0 20 20">
        <path d="M15.0002 13.9586C14.8669 13.9586 14.7419 13.9169 14.6252 13.8336C14.3502 13.6253 14.2919 13.2336 14.5002 12.9586C15.5502 11.5586 15.7752 9.70026 15.1002 8.09193C14.9669 7.77526 15.1169 7.4086 15.4336 7.27526C15.7502 7.14193 16.1169 7.29193 16.2502 7.6086C17.1002 9.62526 16.8086 11.9669 15.5002 13.7169C15.3752 13.8753 15.1919 13.9586 15.0002 13.9586Z" fill="#7F8384"/>
        <path d="M16.5256 16.0413C16.3923 16.0413 16.2673 15.9997 16.1506 15.9163C15.8756 15.708 15.8173 15.3163 16.0256 15.0413C17.809 12.6663 18.2006 9.48301 17.0506 6.74134C16.9173 6.42468 17.0673 6.05801 17.384 5.92468C17.7006 5.79134 18.0673 5.94134 18.2006 6.25801C19.5256 9.40801 19.0756 13.058 17.0256 15.7913C16.909 15.958 16.7173 16.0413 16.5256 16.0413Z" fill="#7F8384"/>
        <path d="M11.6997 10.7997C12.2247 10.2747 13.1247 10.6497 13.1247 11.3914V13.833C13.1247 15.2664 12.6081 16.3414 11.6831 16.858C11.3081 17.0664 10.8914 17.1664 10.4581 17.1664C9.79141 17.1664 9.07474 16.9414 8.34141 16.483L7.80807 16.1497C7.35807 15.8664 7.28307 15.233 7.65807 14.858L11.6997 10.7997Z" fill="#7F8384"/>
        <path d="M18.141 1.8584C17.891 1.6084 17.4827 1.6084 17.2327 1.8584L13.1077 5.9834C13.0577 4.65006 12.5577 3.65007 11.6743 3.1584C10.741 2.64173 9.54935 2.77506 8.33268 3.5334L5.90768 5.05006C5.74102 5.15006 5.54935 5.2084 5.35768 5.2084H4.58268H4.16602C2.14935 5.2084 1.04102 6.31673 1.04102 8.3334V11.6667C1.04102 13.6834 2.14935 14.7917 4.16602 14.7917H4.29935L1.84935 17.2417C1.59935 17.4917 1.59935 17.9001 1.84935 18.1501C1.98268 18.2667 2.14102 18.3334 2.30768 18.3334C2.47435 18.3334 2.63268 18.2667 2.75768 18.1417L18.141 2.7584C18.3993 2.5084 18.3993 2.1084 18.141 1.8584Z" fill="#7F8384"/>
    </symbol>
    <symbol id="right" xmlns="http://www.w3.org/2000/svg" viewBox="0 0 20 20">
        <path d="M17.4993 5.8332L7.49935 15.8332L2.91602 11.2499L4.09102 10.0749L7.49935 13.4749L16.3243 4.6582L17.4993 5.8332Z" fill="#7F8384"/>
    </symbol>
    <symbol id="gallery" xmlns="http://www.w3.org/2000/svg" viewBox="0 0 20 20">
        <path d="M2.15065 15.8414L2.13398 15.8581C1.90898 15.3664 1.76732 14.8081 1.70898 14.1914C1.76732 14.7997 1.92565 15.3497 2.15065 15.8414Z" />
        <path d="M7.50091 8.65026C8.59628 8.65026 9.48424 7.76229 9.48424 6.66693C9.48424 5.57156 8.59628 4.68359 7.50091 4.68359C6.40555 4.68359 5.51758 5.57156 5.51758 6.66693C5.51758 7.76229 6.40555 8.65026 7.50091 8.65026Z"/>
        <path d="M13.491 1.66699H6.50768C3.47435 1.66699 1.66602 3.47533 1.66602 6.50866V13.492C1.66602 14.4003 1.82435 15.192 2.13268 15.8587C2.84935 17.442 4.38268 18.3337 6.50768 18.3337H13.491C16.5243 18.3337 18.3327 16.5253 18.3327 13.492V11.5837V6.50866C18.3327 3.47533 16.5243 1.66699 13.491 1.66699ZM16.9743 10.417C16.3243 9.85866 15.2743 9.85866 14.6243 10.417L11.1577 13.392C10.5077 13.9503 9.45768 13.9503 8.80768 13.392L8.52435 13.1587C7.93268 12.642 6.99102 12.592 6.32435 13.042L3.20768 15.1337C3.02435 14.667 2.91602 14.1253 2.91602 13.492V6.50866C2.91602 4.15866 4.15768 2.91699 6.50768 2.91699H13.491C15.841 2.91699 17.0827 4.15866 17.0827 6.50866V10.5087L16.9743 10.417Z"/>
    </symbol>
    <symbol id="danger" xmlns="http://www.w3.org/2000/svg" width="20" height="20" viewBox="0 0 20 20">
        <path d="M18.134 13.267L12.8007 3.66699C12.084 2.37533 11.0924 1.66699 10.0007 1.66699C8.90905 1.66699 7.91738 2.37533 7.20071 3.66699L1.86738 13.267C1.19238 14.492 1.11738 15.667 1.65905 16.592C2.20071 17.517 3.26738 18.0253 4.66738 18.0253H15.334C16.734 18.0253 17.8007 17.517 18.3424 16.592C18.884 15.667 18.809 14.4837 18.134 13.267ZM9.37571 7.50033C9.37571 7.15866 9.65905 6.87533 10.0007 6.87533C10.3424 6.87533 10.6257 7.15866 10.6257 7.50033V11.667C10.6257 12.0087 10.3424 12.292 10.0007 12.292C9.65905 12.292 9.37571 12.0087 9.37571 11.667V7.50033ZM10.5924 14.7587C10.5507 14.792 10.509 14.8253 10.4674 14.8587C10.4174 14.892 10.3674 14.917 10.3174 14.9337C10.2674 14.9587 10.2174 14.9753 10.159 14.9837C10.109 14.992 10.0507 15.0003 10.0007 15.0003C9.95071 15.0003 9.89238 14.992 9.83405 14.9837C9.78405 14.9753 9.73405 14.9587 9.68405 14.9337C9.63405 14.917 9.58405 14.892 9.53405 14.8587C9.49238 14.8253 9.45071 14.792 9.40905 14.7587C9.25905 14.6003 9.16738 14.3837 9.16738 14.167C9.16738 13.9503 9.25905 13.7337 9.40905 13.5753C9.45071 13.542 9.49238 13.5087 9.53405 13.4753C9.58405 13.442 9.63405 13.417 9.68405 13.4003C9.73405 13.3753 9.78405 13.3587 9.83405 13.3503C9.94238 13.3253 10.059 13.3253 10.159 13.3503C10.2174 13.3587 10.2674 13.3753 10.3174 13.4003C10.3674 13.417 10.4174 13.442 10.4674 13.4753C10.509 13.5087 10.5507 13.542 10.5924 13.5753C10.7424 13.7337 10.834 13.9503 10.834 14.167C10.834 14.3837 10.7424 14.6003 10.5924 14.7587Z" fill="#FF5151"/>
    </symbol>
    <symbol id="stroke-gallery" xmlns="http://www.w3.org/2000/svg" viewBox="0 0 24 24" fill="none">
        <path d="M9 22H15C20 22 22 20 22 15V9C22 4 20 2 15 2H9C4 2 2 4 2 9V15C2 20 4 22 9 22Z" stroke-width="1.5" stroke-linecap="round" stroke-linejoin="round"/>
        <path d="M9 10C10.1046 10 11 9.10457 11 8C11 6.89543 10.1046 6 9 6C7.89543 6 7 6.89543 7 8C7 9.10457 7.89543 10 9 10Z" stroke-width="1.5" stroke-linecap="round" stroke-linejoin="round"/>
        <path d="M2.67004 18.9501L7.60004 15.6401C8.39004 15.1101 9.53004 15.1701 10.24 15.7801L10.57 16.0701C11.35 16.7401 12.61 16.7401 13.39 16.0701L17.55 12.5001C18.33 11.8301 19.59 11.8301 20.37 12.5001L22 13.9001" stroke-width="1.5" stroke-linecap="round" stroke-linejoin="round"/>
    </symbol>
    <symbol id="stroke-document" xmlns="http://www.w3.org/2000/svg" viewBox="0 0 24 24" fill="none">
        <path d="M22 10V15C22 20 20 22 15 22H9C4 22 2 20 2 15V9C2 4 4 2 9 2H14" stroke-width="1.5" stroke-linecap="round" stroke-linejoin="round"/>
        <path d="M22 10H18C15 10 14 9 14 6V2L22 10Z" stroke-width="1.5" stroke-linecap="round" stroke-linejoin="round"/>
        <path d="M7 13H13" stroke-width="1.5" stroke-linecap="round" stroke-linejoin="round"/>
        <path d="M7 17H11" stroke-width="1.5" stroke-linecap="round" stroke-linejoin="round"/>
    </symbol>
    <symbol id="stroke-share" xmlns="http://www.w3.org/2000/svg" viewBox="0 0 24 24" fill="none" stroke="currentColor" stroke-width="1.5" stroke-linecap="round" stroke-linejoin="round" class="feather feather-share-2">
        <circle cx="18" cy="5" r="3"></circle><circle cx="6" cy="12" r="3"></circle>
        <circle cx="18" cy="19" r="3"></circle>
        <line x1="8.59" y1="13.51" x2="15.42" y2="17.49"></line>
        <line x1="15.41" y1="6.51" x2="8.59" y2="10.49"></line>
    </symbol>
    <symbol id="stroke-music" xmlns="http://www.w3.org/2000/svg" viewBox="0 0 24 24" fill="none">
        <path d="M6.28003 22C8.00316 22 9.40003 20.6031 9.40003 18.88C9.40003 17.1569 8.00316 15.76 6.28003 15.76C4.55691 15.76 3.16003 17.1569 3.16003 18.88C3.16003 20.6031 4.55691 22 6.28003 22Z" stroke-width="1.5" stroke-linecap="round" stroke-linejoin="round"/>
        <path d="M20.84 16.8001V4.60009C20.84 2.00009 19.21 1.64009 17.56 2.09009L11.32 3.79009C10.18 4.10009 9.40002 5.00009 9.40002 6.30009V8.47009V9.93009V18.8701" stroke-width="1.5" stroke-linecap="round" stroke-linejoin="round"/>
        <path d="M17.72 19.9199C19.4431 19.9199 20.84 18.5231 20.84 16.7999C20.84 15.0768 19.4431 13.6799 17.72 13.6799C15.9968 13.6799 14.6 15.0768 14.6 16.7999C14.6 18.5231 15.9968 19.9199 17.72 19.9199Z" stroke-width="1.5" stroke-linecap="round" stroke-linejoin="round"/>
        <path d="M9.40002 9.5199L20.84 6.3999" stroke-width="1.5" stroke-linecap="round" stroke-linejoin="round"/>
    </symbol>
    <symbol id="stroke-reminder" xmlns="http://www.w3.org/2000/svg" viewBox="0 0 24 24" fill="none">
        <path d="M22 12C22 17.52 17.52 22 12 22C6.48 22 2 17.52 2 12C2 6.48 6.48 2 12 2C17.52 2 22 6.48 22 12Z" stroke-width="1.5" stroke-linecap="round" stroke-linejoin="round"/>
        <path d="M15.71 15.18L12.61 13.33C12.07 13.01 11.63 12.24 11.63 11.61V7.51001" stroke-width="1.5" stroke-linecap="round" stroke-linejoin="round"/>
    </symbol>
    <symbol id="stroke-video" xmlns="http://www.w3.org/2000/svg" viewBox="0 0 24 24" fill="none">
        <path d="M22 15V9C22 4 20 2 15 2H9C4 2 2 4 2 9V15C2 20 4 22 9 22H15C20 22 22 20 22 15Z" stroke-width="1.5" stroke-linecap="round" stroke-linejoin="round"/>
        <path d="M2.52002 7.11011H21.48" stroke-width="1.5" stroke-linecap="round" stroke-linejoin="round"/>
        <path d="M8.52002 2.11011V6.97011" stroke-width="1.5" stroke-linecap="round" stroke-linejoin="round"/>
        <path d="M15.48 2.11011V6.52011" stroke-width="1.5" stroke-linecap="round" stroke-linejoin="round"/>
        <path d="M9.75 14.4501V13.2501C9.75 11.7101 10.84 11.0801 12.17 11.8501L13.21 12.4501L14.25 13.0501C15.58 13.8201 15.58 15.0801 14.25 15.8501L13.21 16.4501L12.17 17.0501C10.84 17.8201 9.75 17.1901 9.75 15.6501V14.4501V14.4501Z" stroke-width="1.5" stroke-miterlimit="10" stroke-linecap="round" stroke-linejoin="round"/>
    </symbol>
    <symbol id="pdf-file" xmlns="http://www.w3.org/2000/svg" viewBox="0 0 26 33" fill="none">
        <g clip-path="url(#clip0_2398_38015)">
            <path d="M4.33333 0C1.94323 0 0 1.82178 0 4.0625V28.4375C0 30.6782 1.94323 32.5 4.33333 32.5H21.6667C24.0568 32.5 26 30.6782 26 28.4375V10.1562H17.3333C16.1349 10.1562 15.1667 9.24854 15.1667 8.125V0H4.33333ZM17.3333 0V8.125H26L17.3333 0ZM4.33333 14.2188H5.95833C8.05052 14.2188 9.75 15.812 9.75 17.7734C9.75 19.7349 8.05052 21.3281 5.95833 21.3281H5.41667V23.3594C5.41667 23.918 4.92917 24.375 4.33333 24.375C3.7375 24.375 3.25 23.918 3.25 23.3594V15.2344C3.25 14.6758 3.7375 14.2188 4.33333 14.2188ZM5.95833 19.2969C6.85885 19.2969 7.58333 18.6177 7.58333 17.7734C7.58333 16.9292 6.85885 16.25 5.95833 16.25H5.41667V19.2969H5.95833ZM10.8333 15.2344C10.8333 14.6758 11.3208 14.2188 11.9167 14.2188H13.5417C15.3359 14.2188 16.7917 15.5835 16.7917 17.2656V21.3281C16.7917 23.0103 15.3359 24.375 13.5417 24.375H11.9167C11.3208 24.375 10.8333 23.918 10.8333 23.3594V15.2344ZM13 22.3438H13.5417C14.1375 22.3438 14.625 21.8867 14.625 21.3281V17.2656C14.625 16.707 14.1375 16.25 13.5417 16.25H13V22.3438ZM19.5 14.2188H22.75C23.3458 14.2188 23.8333 14.6758 23.8333 15.2344C23.8333 15.793 23.3458 16.25 22.75 16.25H20.5833V18.2812H22.75C23.3458 18.2812 23.8333 18.7383 23.8333 19.2969C23.8333 19.8555 23.3458 20.3125 22.75 20.3125H20.5833V23.3594C20.5833 23.918 20.0958 24.375 19.5 24.375C18.9042 24.375 18.4167 23.918 18.4167 23.3594V15.2344C18.4167 14.6758 18.9042 14.2188 19.5 14.2188Z" fill="#EE595C"/>
        </g>
        <defs>
            <clipPath id="clip0_2398_38015">
            <rect width="26" height="32.5" fill="white"/>
            </clipPath>
        </defs>
    </symbol>
    <symbol id="document-download" xmlns="http://www.w3.org/2000/svg" viewBox="0 0 35 35" fill="none">
        <path d="M24.4993 13.125H18.5931V19.6L21.6118 16.5812C21.8306 16.3625 22.1077 16.2604 22.3848 16.2604C22.6618 16.2604 22.9389 16.3625 23.1577 16.5812C23.5806 17.0042 23.5806 17.7042 23.1577 18.1271L18.2723 23.0125C17.8493 23.4354 17.1494 23.4354 16.7264 23.0125L11.841 18.1271C11.4181 17.7042 11.4181 17.0042 11.841 16.5812C12.2639 16.1583 12.9639 16.1583 13.3868 16.5812L16.4056 19.6V13.125H10.4993C5.83268 13.125 2.91602 16.0417 2.91602 20.7083V24.4854C2.91602 29.1667 5.83268 32.0833 10.4993 32.0833H24.4848C29.1514 32.0833 32.0681 29.1667 32.0681 24.5V20.7083C32.0827 16.0417 29.166 13.125 24.4993 13.125Z" fill="white"/>
        <path d="M18.5938 4.01074C18.5938 3.41283 18.0979 2.91699 17.5 2.91699C16.9021 2.91699 16.4062 3.41283 16.4062 4.01074V13.1253H18.5938V4.01074Z" fill="white"/>
    </symbol>

    <symbol id="audio" xmlns="http://www.w3.org/2000/svg" viewBox="0 0 24 24">
        <path d="M2.74982 18.6508C2.33982 18.6508 1.99982 18.3108 1.99982 17.9008V12.2008C1.94982 9.49078 2.95982 6.93078 4.83982 5.01078C6.71982 3.10078 9.23982 2.05078 11.9498 2.05078C17.4898 2.05078 21.9998 6.56078 21.9998 12.1008V17.8008C21.9998 18.2108 21.6598 18.5508 21.2498 18.5508C20.8398 18.5508 20.4998 18.2108 20.4998 17.8008V12.1008C20.4998 7.39078 16.6698 3.55078 11.9498 3.55078C9.63982 3.55078 7.49982 4.44078 5.90982 6.06078C4.30982 7.69078 3.45982 9.86078 3.49982 12.1808V17.8908C3.49982 18.3108 3.16982 18.6508 2.74982 18.6508Z" />
        <path d="M5.94 12.4492H5.81C3.71 12.4492 2 14.1592 2 16.2592V18.1392C2 20.2392 3.71 21.9492 5.81 21.9492H5.94C8.04 21.9492 9.75 20.2392 9.75 18.1392V16.2592C9.75 14.1592 8.04 12.4492 5.94 12.4492Z" />
        <path d="M18.19 12.4492H18.06C15.96 12.4492 14.25 14.1592 14.25 16.2592V18.1392C14.25 20.2392 15.96 21.9492 18.06 21.9492H18.19C20.29 21.9492 22 20.2392 22 18.1392V16.2592C22 14.1592 20.29 12.4492 18.19 12.4492Z" />
    </symbol>
    <symbol id="gallery-fill" xmlns="http://www.w3.org/2000/svg" viewBox="0 0 24 24">
        <path d="M2.58078 19.0103L2.56078 19.0303C2.29078 18.4403 2.12078 17.7703 2.05078 17.0303C2.12078 17.7603 2.31078 18.4203 2.58078 19.0103Z"/>
        <path d="M8.99914 10.3801C10.3136 10.3801 11.3791 9.31456 11.3791 8.00012C11.3791 6.68568 10.3136 5.62012 8.99914 5.62012C7.6847 5.62012 6.61914 6.68568 6.61914 8.00012C6.61914 9.31456 7.6847 10.3801 8.99914 10.3801Z"/>
        <path d="M16.19 2H7.81C4.17 2 2 4.17 2 7.81V16.19C2 17.28 2.19 18.23 2.56 19.03C3.42 20.93 5.26 22 7.81 22H16.19C19.83 22 22 19.83 22 16.19V13.9V7.81C22 4.17 19.83 2 16.19 2ZM20.37 12.5C19.59 11.83 18.33 11.83 17.55 12.5L13.39 16.07C12.61 16.74 11.35 16.74 10.57 16.07L10.23 15.79C9.52 15.17 8.39 15.11 7.59 15.65L3.85 18.16C3.63 17.6 3.5 16.95 3.5 16.19V7.81C3.5 4.99 4.99 3.5 7.81 3.5H16.19C19.01 3.5 20.5 4.99 20.5 7.81V12.61L20.37 12.5Z"/>
    </symbol>
    <symbol id="video" xmlns="http://www.w3.org/2000/svg" viewBox="0 0 24 24">
        <path d="M21.15 6.17C20.74 5.95 19.88 5.72 18.71 6.54L17.24 7.58C17.13 4.47 15.78 3.25 12.5 3.25H6.5C3.08 3.25 1.75 4.58 1.75 8V16C1.75 18.3 3 20.75 6.5 20.75H12.5C15.78 20.75 17.13 19.53 17.24 16.42L18.71 17.46C19.33 17.9 19.87 18.04 20.3 18.04C20.67 18.04 20.96 17.93 21.15 17.83C21.56 17.62 22.25 17.05 22.25 15.62V8.38C22.25 6.95 21.56 6.38 21.15 6.17ZM11 11.38C9.97 11.38 9.12 10.54 9.12 9.5C9.12 8.46 9.97 7.62 11 7.62C12.03 7.62 12.88 8.46 12.88 9.5C12.88 10.54 12.03 11.38 11 11.38Z"/>
    </symbol>
    <symbol id="contact" xmlns="http://www.w3.org/2000/svg" viewBox="0 0 24 24" >
        <path d="M22 12C22 6.49 17.51 2 12 2C6.49 2 2 6.49 2 12C2 14.9 3.25 17.51 5.23 19.34C5.23 19.35 5.23 19.35 5.22 19.36C5.32 19.46 5.44 19.54 5.54 19.63C5.6 19.68 5.65 19.73 5.71 19.77C5.89 19.92 6.09 20.06 6.28 20.2C6.35 20.25 6.41 20.29 6.48 20.34C6.67 20.47 6.87 20.59 7.08 20.7C7.15 20.74 7.23 20.79 7.3 20.83C7.5 20.94 7.71 21.04 7.93 21.13C8.01 21.17 8.09 21.21 8.17 21.24C8.39 21.33 8.61 21.41 8.83 21.48C8.91 21.51 8.99 21.54 9.07 21.56C9.31 21.63 9.55 21.69 9.79 21.75C9.86 21.77 9.93 21.79 10.01 21.8C10.29 21.86 10.57 21.9 10.86 21.93C10.9 21.93 10.94 21.94 10.98 21.95C11.32 21.98 11.66 22 12 22C12.34 22 12.68 21.98 13.01 21.95C13.05 21.95 13.09 21.94 13.13 21.93C13.42 21.9 13.7 21.86 13.98 21.8C14.05 21.79 14.12 21.76 14.2 21.75C14.44 21.69 14.69 21.64 14.92 21.56C15 21.53 15.08 21.5 15.16 21.48C15.38 21.4 15.61 21.33 15.82 21.24C15.9 21.21 15.98 21.17 16.06 21.13C16.27 21.04 16.48 20.94 16.69 20.83C16.77 20.79 16.84 20.74 16.91 20.7C17.11 20.58 17.31 20.47 17.51 20.34C17.58 20.3 17.64 20.25 17.71 20.2C17.91 20.06 18.1 19.92 18.28 19.77C18.34 19.72 18.39 19.67 18.45 19.63C18.56 19.54 18.67 19.45 18.77 19.36C18.77 19.35 18.77 19.35 18.76 19.34C20.75 17.51 22 14.9 22 12ZM16.94 16.97C14.23 15.15 9.79 15.15 7.06 16.97C6.62 17.26 6.26 17.6 5.96 17.97C4.44 16.43 3.5 14.32 3.5 12C3.5 7.31 7.31 3.5 12 3.5C16.69 3.5 20.5 7.31 20.5 12C20.5 14.32 19.56 16.43 18.04 17.97C17.75 17.6 17.38 17.26 16.94 16.97Z"/>
        <path d="M12 6.92969C9.93 6.92969 8.25 8.60969 8.25 10.6797C8.25 12.7097 9.84 14.3597 11.95 14.4197C11.98 14.4197 12.02 14.4197 12.04 14.4197C12.06 14.4197 12.09 14.4197 12.11 14.4197C12.12 14.4197 12.13 14.4197 12.13 14.4197C14.15 14.3497 15.74 12.7097 15.75 10.6797C15.75 8.60969 14.07 6.92969 12 6.92969Z"/>
    </symbol>
    <symbol id="user-group" xmlns="http://www.w3.org/2000/svg" viewBox="0 0 24 24" >
        <path d="M18.0003 7.90977C17.9703 7.90977 17.9503 7.90977 17.9203 7.90977H17.8703C15.9803 7.84977 14.5703 6.38977 14.5703 4.58977C14.5703 2.74977 16.0703 1.25977 17.9003 1.25977C19.7303 1.25977 21.2303 2.75977 21.2303 4.58977C21.2203 6.39977 19.8103 7.85977 18.0103 7.91977C18.0103 7.90977 18.0103 7.90977 18.0003 7.90977ZM17.9003 2.74977C16.8903 2.74977 16.0703 3.56977 16.0703 4.57977C16.0703 5.56977 16.8403 6.36977 17.8303 6.40977C17.8403 6.39977 17.9203 6.39977 18.0103 6.40977C18.9803 6.35977 19.7303 5.55977 19.7403 4.57977C19.7403 3.56977 18.9203 2.74977 17.9003 2.74977Z" fill="#01AA85"/>
        <path d="M18.0105 15.2797C17.6205 15.2797 17.2305 15.2497 16.8405 15.1797C16.4305 15.1097 16.1605 14.7197 16.2305 14.3097C16.3005 13.8997 16.6905 13.6297 17.1005 13.6997C18.3305 13.9097 19.6305 13.6797 20.5005 13.0997C20.9705 12.7897 21.2205 12.3997 21.2205 12.0097C21.2205 11.6197 20.9605 11.2397 20.5005 10.9297C19.6305 10.3497 18.3105 10.1197 17.0705 10.3397C16.6605 10.4197 16.2705 10.1397 16.2005 9.72966C16.1305 9.31966 16.4005 8.92966 16.8105 8.85966C18.4405 8.56966 20.1305 8.87965 21.3305 9.67965C22.2105 10.2697 22.7205 11.1097 22.7205 12.0097C22.7205 12.8997 22.2205 13.7497 21.3305 14.3497C20.4205 14.9497 19.2405 15.2797 18.0105 15.2797Z" fill="#01AA85"/>
        <path d="M5.97047 7.91C5.96047 7.91 5.95047 7.91 5.95047 7.91C4.15047 7.85 2.74047 6.39 2.73047 4.59C2.73047 2.75 4.23047 1.25 6.06047 1.25C7.89047 1.25 9.39047 2.75 9.39047 4.58C9.39047 6.39 7.98047 7.85 6.18047 7.91L5.97047 7.16L6.04047 7.91C6.02047 7.91 5.99047 7.91 5.97047 7.91ZM6.07047 6.41C6.13047 6.41 6.18047 6.41 6.24047 6.42C7.13047 6.38 7.91047 5.58 7.91047 4.59C7.91047 3.58 7.09047 2.75999 6.08047 2.75999C5.07047 2.75999 4.25047 3.58 4.25047 4.59C4.25047 5.57 5.01047 6.36 5.98047 6.42C5.99047 6.41 6.03047 6.41 6.07047 6.41Z" fill="#01AA85"/>
        <path d="M5.96 15.2797C4.73 15.2797 3.55 14.9497 2.64 14.3497C1.76 13.7597 1.25 12.9097 1.25 12.0097C1.25 11.1197 1.76 10.2697 2.64 9.67965C3.84 8.87965 5.53 8.56966 7.16 8.85966C7.57 8.92966 7.84 9.31966 7.77 9.72966C7.7 10.1397 7.31 10.4197 6.9 10.3397C5.66 10.1197 4.35 10.3497 3.47 10.9297C3 11.2397 2.75 11.6197 2.75 12.0097C2.75 12.3997 3.01 12.7897 3.47 13.0997C4.34 13.6797 5.64 13.9097 6.87 13.6997C7.28 13.6297 7.67 13.9097 7.74 14.3097C7.81 14.7197 7.54 15.1097 7.13 15.1797C6.74 15.2497 6.35 15.2797 5.96 15.2797Z" fill="#01AA85"/>
        <path d="M12.0003 15.3805C11.9703 15.3805 11.9503 15.3805 11.9203 15.3805H11.8703C9.98031 15.3205 8.57031 13.8605 8.57031 12.0605C8.57031 10.2205 10.0703 8.73047 11.9003 8.73047C13.7303 8.73047 15.2303 10.2305 15.2303 12.0605C15.2203 13.8705 13.8103 15.3305 12.0103 15.3905C12.0103 15.3805 12.0103 15.3805 12.0003 15.3805ZM11.9003 10.2205C10.8903 10.2205 10.0703 11.0405 10.0703 12.0505C10.0703 13.0405 10.8403 13.8405 11.8303 13.8805C11.8403 13.8705 11.9203 13.8705 12.0103 13.8805C12.9803 13.8305 13.7303 13.0305 13.7403 12.0505C13.7403 11.0505 12.9203 10.2205 11.9003 10.2205Z" fill="#01AA85"/>
        <path d="M11.9993 22.7597C10.7993 22.7597 9.5993 22.4497 8.6693 21.8197C7.7893 21.2297 7.2793 20.3897 7.2793 19.4897C7.2793 18.5997 7.7793 17.7397 8.6693 17.1497C10.5393 15.9097 13.4693 15.9097 15.3293 17.1497C16.2093 17.7397 16.7193 18.5797 16.7193 19.4797C16.7193 20.3697 16.2193 21.2297 15.3293 21.8197C14.3993 22.4397 13.1993 22.7597 11.9993 22.7597ZM9.4993 18.4097C9.0293 18.7197 8.7793 19.1097 8.7793 19.4997C8.7793 19.8897 9.0393 20.2697 9.4993 20.5797C10.8493 21.4897 13.1393 21.4897 14.4893 20.5797C14.9593 20.2697 15.2093 19.8797 15.2093 19.4897C15.2093 19.0997 14.9493 18.7197 14.4893 18.4097C13.1493 17.4997 10.8593 17.5097 9.4993 18.4097Z" fill="#01AA85"/>
    </symbol>
    <symbol id="messege-icon" xmlns="http://www.w3.org/2000/svg" viewBox="0 0 24 24">
        <path d="M17 2.42969H7C4 2.42969 2 4.42969 2 7.42969V13.4297C2 16.4297 4 18.4297 7 18.4297H11L15.45 21.3897C16.11 21.8297 17 21.3597 17 20.5597V18.4297C20 18.4297 22 16.4297 22 13.4297V7.42969C22 4.42969 20 2.42969 17 2.42969ZM15.5 11.2497H8.5C8.09 11.2497 7.75 10.9097 7.75 10.4997C7.75 10.0897 8.09 9.74969 8.5 9.74969H15.5C15.91 9.74969 16.25 10.0897 16.25 10.4997C16.25 10.9097 15.91 11.2497 15.5 11.2497Z"/>
    </symbol>
    <symbol id="phone-icon" xmlns="http://www.w3.org/2000/svg" viewBox="0 0 24 24">
        <path d="M17.62 10.7496C17.19 10.7496 16.85 10.3996 16.85 9.97961C16.85 9.60961 16.48 8.83961 15.86 8.16961C15.25 7.51961 14.58 7.13961 14.02 7.13961C13.59 7.13961 13.25 6.78961 13.25 6.36961C13.25 5.94961 13.6 5.59961 14.02 5.59961C15.02 5.59961 16.07 6.13961 16.99 7.10961C17.85 8.01961 18.4 9.14961 18.4 9.96961C18.4 10.3996 18.05 10.7496 17.62 10.7496Z" />
        <path d="M21.2298 10.75C20.7998 10.75 20.4598 10.4 20.4598 9.98C20.4598 6.43 17.5698 3.55 14.0298 3.55C13.5998 3.55 13.2598 3.2 13.2598 2.78C13.2598 2.36 13.5998 2 14.0198 2C18.4198 2 21.9998 5.58 21.9998 9.98C21.9998 10.4 21.6498 10.75 21.2298 10.75Z" />
        <path d="M11.05 14.95L9.2 16.8C8.81 17.19 8.19 17.19 7.79 16.81C7.68 16.7 7.57 16.6 7.46 16.49C6.43 15.45 5.5 14.36 4.67 13.22C3.85 12.08 3.19 10.94 2.71 9.81C2.24 8.67 2 7.58 2 6.54C2 5.86 2.12 5.21 2.36 4.61C2.6 4 2.98 3.44 3.51 2.94C4.15 2.31 4.85 2 5.59 2C5.87 2 6.15 2.06 6.4 2.18C6.66 2.3 6.89 2.48 7.07 2.74L9.39 6.01C9.57 6.26 9.7 6.49 9.79 6.71C9.88 6.92 9.93 7.13 9.93 7.32C9.93 7.56 9.86 7.8 9.72 8.03C9.59 8.26 9.4 8.5 9.16 8.74L8.4 9.53C8.29 9.64 8.24 9.77 8.24 9.93C8.24 10.01 8.25 10.08 8.27 10.16C8.3 10.24 8.33 10.3 8.35 10.36C8.53 10.69 8.84 11.12 9.28 11.64C9.73 12.16 10.21 12.69 10.73 13.22C10.83 13.32 10.94 13.42 11.04 13.52C11.44 13.91 11.45 14.55 11.05 14.95Z" />
        <path d="M21.9696 18.33C21.9696 18.61 21.9196 18.9 21.8196 19.18C21.7896 19.26 21.7596 19.34 21.7196 19.42C21.5496 19.78 21.3296 20.12 21.0396 20.44C20.5496 20.98 20.0096 21.37 19.3996 21.62C19.3896 21.62 19.3796 21.63 19.3696 21.63C18.7796 21.87 18.1396 22 17.4496 22C16.4296 22 15.3396 21.76 14.1896 21.27C13.0396 20.78 11.8896 20.12 10.7496 19.29C10.3596 19 9.96961 18.71 9.59961 18.4L12.8696 15.13C13.1496 15.34 13.3996 15.5 13.6096 15.61C13.6596 15.63 13.7196 15.66 13.7896 15.69C13.8696 15.72 13.9496 15.73 14.0396 15.73C14.2096 15.73 14.3396 15.67 14.4496 15.56L15.2096 14.81C15.4596 14.56 15.6996 14.37 15.9296 14.25C16.1596 14.11 16.3896 14.04 16.6396 14.04C16.8296 14.04 17.0296 14.08 17.2496 14.17C17.4696 14.26 17.6996 14.39 17.9496 14.56L21.2596 16.91C21.5196 17.09 21.6996 17.3 21.8096 17.55C21.9096 17.8 21.9696 18.05 21.9696 18.33Z" />
    </symbol>
    <symbol id="user-icon" xmlns="http://www.w3.org/2000/svg" viewBox="0 0 24 24">
        <path d="M9 2C6.38 2 4.25 4.13 4.25 6.75C4.25 9.32 6.26 11.4 8.88 11.49C8.96 11.48 9.04 11.48 9.1 11.49C9.12 11.49 9.13 11.49 9.15 11.49C9.16 11.49 9.16 11.49 9.17 11.49C11.73 11.4 13.74 9.32 13.75 6.75C13.75 4.13 11.62 2 9 2Z"/>
        <path d="M14.0809 14.1499C11.2909 12.2899 6.74094 12.2899 3.93094 14.1499C2.66094 14.9999 1.96094 16.1499 1.96094 17.3799C1.96094 18.6099 2.66094 19.7499 3.92094 20.5899C5.32094 21.5299 7.16094 21.9999 9.00094 21.9999C10.8409 21.9999 12.6809 21.5299 14.0809 20.5899C15.3409 19.7399 16.0409 18.5999 16.0409 17.3599C16.0309 16.1299 15.3409 14.9899 14.0809 14.1499Z" />
        <path d="M19.9894 7.3401C20.1494 9.2801 18.7694 10.9801 16.8594 11.2101C16.8494 11.2101 16.8494 11.2101 16.8394 11.2101H16.8094C16.7494 11.2101 16.6894 11.2101 16.6394 11.2301C15.6694 11.2801 14.7794 10.9701 14.1094 10.4001C15.1394 9.4801 15.7294 8.1001 15.6094 6.6001C15.5394 5.7901 15.2594 5.0501 14.8394 4.4201C15.2194 4.2301 15.6594 4.1101 16.1094 4.0701C18.0694 3.9001 19.8194 5.3601 19.9894 7.3401Z" />
        <path d="M21.9902 16.5904C21.9102 17.5604 21.2902 18.4004 20.2502 18.9704C19.2502 19.5204 17.9902 19.7804 16.7402 19.7504C17.4602 19.1004 17.8802 18.2904 17.9602 17.4304C18.0602 16.1904 17.4702 15.0004 16.2902 14.0504C15.6202 13.5204 14.8402 13.1004 13.9902 12.7904C16.2002 12.1504 18.9802 12.5804 20.6902 13.9604C21.6102 14.7004 22.0802 15.6304 21.9902 16.5904Z" />
    </symbol>

    <symbol id="landing-icon" xmlns="http://www.w3.org/2000/svg" viewBox="0 0 28 28" fill="none">
        <path d="M2.33301 2.33325H4.36301C5.62301 2.33325 6.61468 3.41825 6.50968 4.66659L5.54134 16.2866C5.37801 18.1882 6.883 19.8216 8.79633 19.8216H21.2213C22.9013 19.8216 24.3713 18.4449 24.4997 16.7766L25.1297 8.02659C25.2697 6.08992 23.7997 4.51491 21.8513 4.51491H6.78968" stroke="#11A68A" stroke-width="1.5" stroke-miterlimit="10" stroke-linecap="round" stroke-linejoin="round"/>
        <path d="M18.9583 25.6667C19.7637 25.6667 20.4167 25.0137 20.4167 24.2083C20.4167 23.4029 19.7637 22.75 18.9583 22.75C18.1529 22.75 17.5 23.4029 17.5 24.2083C17.5 25.0137 18.1529 25.6667 18.9583 25.6667Z" stroke="#11A68A" stroke-width="1.5" stroke-miterlimit="10" stroke-linecap="round" stroke-linejoin="round"/>
        <path d="M9.62533 25.6667C10.4307 25.6667 11.0837 25.0137 11.0837 24.2083C11.0837 23.4029 10.4307 22.75 9.62533 22.75C8.81991 22.75 8.16699 23.4029 8.16699 24.2083C8.16699 25.0137 8.81991 25.6667 9.62533 25.6667Z" stroke="#11A68A" stroke-width="1.5" stroke-miterlimit="10" stroke-linecap="round" stroke-linejoin="round"/>
        <path d="M10.5 9.33325H24.5" stroke="#11A68A" stroke-width="1.5" stroke-miterlimit="10" stroke-linecap="round" stroke-linejoin="round"/>
    </symbol>
    <symbol id="heart" xmlns="http://www.w3.org/2000/svg" viewBox="0 0 22 20">
        <path fill-rule="evenodd" clip-rule="evenodd" d="M1.87187 9.59832C0.798865 6.24832 2.05287 2.41932 5.56987 1.28632C7.41987 0.689322 9.46187 1.04132 10.9999 2.19832C12.4549 1.07332 14.5719 0.693322 16.4199 1.28632C19.9369 2.41932 21.1989 6.24832 20.1269 9.59832C18.4569 14.9083 10.9999 18.9983 10.9999 18.9983C10.9999 18.9983 3.59787 14.9703 1.87187 9.59832Z" stroke-width="1.5" stroke-linecap="round" stroke-linejoin="round"/>
        <path d="M15 4.70001C16.07 5.04601 16.826 6.00101 16.917 7.12201" stroke-width="1.5" stroke-linecap="round" stroke-linejoin="round"/>
    </symbol>


    <!-- header icon -->
    <symbol id="header-toggle" viewBox="0 0 4 18" xmlns="http://www.w3.org/2000/svg">
        <path d="M4 2C4 0.9 3.1 -3.93402e-08 2 -8.74228e-08C0.9 -1.35505e-07 -3.93403e-08 0.9 -8.74228e-08 2C-1.35505e-07 3.1 0.9 4 2 4C3.1 4 4 3.1 4 2Z" />
        <path d="M4 16.0004C4 14.9004 3.1 14.0004 2 14.0004C0.9 14.0004 -3.93403e-08 14.9004 -8.74228e-08 16.0004C-1.35505e-07 17.1004 0.9 18.0004 2 18.0004C3.1 18.0004 4 17.1004 4 16.0004Z" />
        <path d="M4 8.99963C4 7.89963 3.1 6.99963 2 6.99963C0.9 6.99963 -3.93403e-08 7.89963 -8.74228e-08 8.99963C-1.35505e-07 10.0996 0.9 10.9996 2 10.9996C3.1 10.9996 4 10.0996 4 8.99963Z" />
    </symbol>
    <symbol id="volume" xmlns="http://www.w3.org/2000/svg" viewBox="0 0 24 24" fill="none">
        <path d="M2 10V14C2 16 3 17 5 17H6.43C6.8 17 7.17 17.11 7.49 17.3L10.41 19.13C12.93 20.71 15 19.56 15 16.59V7.41003C15 4.43003 12.93 3.29003 10.41 4.87003L7.49 6.70003C7.17 6.89003 6.8 7.00003 6.43 7.00003H5C3 7.00003 2 8.00003 2 10Z" stroke-width="1.5"/>
        <path d="M18 8C19.78 10.37 19.78 13.63 18 16" stroke-width="1.5" stroke-linecap="round" stroke-linejoin="round"/>
        <path d="M19.83 5.5C22.72 9.35 22.72 14.65 19.83 18.5" stroke-width="1.5" stroke-linecap="round" stroke-linejoin="round"/>
    </symbol>
    <symbol id="muted-volume" xmlns="http://www.w3.org/2000/svg" viewBox="0 0 24 24" fill="none">
        <path d="M15 8.37003V7.41003C15 4.43003 12.93 3.29003 10.41 4.87003L7.49 6.70003C7.17 6.89003 6.8 7.00003 6.43 7.00003H5C3 7.00003 2 8.00003 2 10V14C2 16 3 17 5 17H7" stroke-width="1.5" stroke-linecap="round" stroke-linejoin="round"/>
        <path d="M10.41 19.13C12.93 20.71 15 19.56 15 16.59V12.95" stroke-width="1.5" stroke-linecap="round" stroke-linejoin="round"/>
        <path d="M18.81 9.41992C19.71 11.5699 19.44 14.0799 18 15.9999" stroke-width="1.5" stroke-linecap="round" stroke-linejoin="round"/>
        <path d="M21.15 7.80005C22.62 11.29 22.18 15.37 19.83 18.5" stroke-width="1.5" stroke-linecap="round" stroke-linejoin="round"/>
        <path d="M22 2L2 22" stroke-width="1.5" stroke-linecap="round" stroke-linejoin="round"/>
    </symbol>
    <symbol id="toggle-grid" xmlns="http://www.w3.org/2000/svg" viewBox="0 0 24 24" fill="none">
        <path d="M10.5 19.9V4.1C10.5 2.6 9.86 2 8.27 2H4.23C2.64 2 2 2.6 2 4.1V19.9C2 21.4 2.64 22 4.23 22H8.27C9.86 22 10.5 21.4 10.5 19.9Z" stroke-width="1.5" stroke-linecap="round" stroke-linejoin="round"/>
        <path d="M22 10.9V4.1C22 2.6 21.36 2 19.77 2H15.73C14.14 2 13.5 2.6 13.5 4.1V10.9C13.5 12.4 14.14 13 15.73 13H19.77C21.36 13 22 12.4 22 10.9Z" stroke-width="1.5" stroke-linecap="round" stroke-linejoin="round"/>
        <path d="M22 19.9V18.1C22 16.6 21.36 16 19.77 16H15.73C14.14 16 13.5 16.6 13.5 18.1V19.9C13.5 21.4 14.14 22 15.73 22H19.77C21.36 22 22 21.4 22 19.9Z" stroke-width="1.5" stroke-linecap="round" stroke-linejoin="round"/>
    </symbol>
    <symbol id="search-toggl" xmlns="http://www.w3.org/2000/svg" viewBox="0 0 24 24" fill="none">
        <path d="M11.5 21C16.7467 21 21 16.7467 21 11.5C21 6.25329 16.7467 2 11.5 2C6.25329 2 2 6.25329 2 11.5C2 16.7467 6.25329 21 11.5 21Z" troke-width="1.5" stroke-linecap="round" stroke-linejoin="round"/>
        <path d="M22 22L20 20" stroke-width="1.5" stroke-linecap="round" stroke-linejoin="round"/>
    </symbol>
    <symbol id="call" xmlns="http://www.w3.org/2000/svg" viewBox="0 0 22 22" fill="none">
        <path d="M20.97 17.33C20.97 17.69 20.89 18.06 20.72 18.42C20.55 18.78 20.33 19.12 20.04 19.44C19.55 19.98 19.01 20.37 18.4 20.62C17.8 20.87 17.15 21 16.45 21C15.43 21 14.34 20.76 13.19 20.27C12.04 19.78 10.89 19.12 9.75 18.29C8.6 17.45 7.51 16.52 6.47 15.49C5.44 14.45 4.51 13.36 3.68 12.22C2.86 11.08 2.2 9.94 1.72 8.81C1.24 7.67 1 6.58 1 5.54C1 4.86 1.12 4.21 1.36 3.61C1.6 3 1.98 2.44 2.51 1.94C3.15 1.31 3.85 1 4.59 1C4.87 1 5.15 1.06 5.4 1.18C5.66 1.3 5.89 1.48 6.07 1.74L8.39 5.01C8.57 5.26 8.7 5.49 8.79 5.71C8.88 5.92 8.93 6.13 8.93 6.32C8.93 6.56 8.86 6.8 8.72 7.03C8.59 7.26 8.4 7.5 8.16 7.74L7.4 8.53C7.29 8.64 7.24 8.77 7.24 8.93C7.24 9.01 7.25 9.08 7.27 9.16C7.3 9.24 7.33 9.3 7.35 9.36C7.53 9.69 7.84 10.12 8.28 10.64C8.73 11.16 9.21 11.69 9.73 12.22C10.27 12.75 10.79 13.24 11.32 13.69C11.84 14.13 12.27 14.43 12.61 14.61C12.66 14.63 12.72 14.66 12.79 14.69C12.87 14.72 12.95 14.73 13.04 14.73C13.21 14.73 13.34 14.67 13.45 14.56L14.21 13.81C14.46 13.56 14.7 13.37 14.93 13.25C15.16 13.11 15.39 13.04 15.64 13.04C15.83 13.04 16.03 13.08 16.25 13.17C16.47 13.26 16.7 13.39 16.95 13.56L20.26 15.91C20.52 16.09 20.7 16.3 20.81 16.55C20.91 16.8 20.97 17.05 20.97 17.33Z" stroke-width="1.5" stroke-miterlimit="10"/>
    </symbol>
    <symbol id="video-call" xmlns="http://www.w3.org/2000/svg" viewBox="0 0 24 24" fill="none">
        <path d="M12.53 20.4201H6.21C3.05 20.4201 2 18.3201 2 16.2101V7.79008C2 4.63008 3.05 3.58008 6.21 3.58008H12.53C15.69 3.58008 16.74 4.63008 16.74 7.79008V16.2101C16.74 19.3701 15.68 20.4201 12.53 20.4201Z" stroke-width="1.5" stroke-linecap="round" stroke-linejoin="round"/>
        <path d="M19.52 17.0999L16.74 15.1499V8.83989L19.52 6.88989C20.88 5.93989 22 6.51989 22 8.18989V15.8099C22 17.4799 20.88 18.0599 19.52 17.0999Z" stroke-width="1.5" stroke-linecap="round" stroke-linejoin="round"/>
        <path d="M11.5 11C12.3284 11 13 10.3284 13 9.5C13 8.67157 12.3284 8 11.5 8C10.6716 8 10 8.67157 10 9.5C10 10.3284 10.6716 11 11.5 11Z" stroke-width="1.5" stroke-linecap="round" stroke-linejoin="round"/>
    </symbol>
    <symbol id="clear" xmlns="http://www.w3.org/2000/svg" viewBox="0 0 20 20" fill="none">
        <path d="M8.01529 4.21869L4.89166 6.11846L3.46685 3.78031C2.94625 2.92176 3.22025 1.78922 4.07879 1.26861C4.93733 0.748007 6.06988 1.02199 6.59048 1.88054L8.01529 4.21869Z" stroke-width="1.34809" stroke-linecap="round" stroke-linejoin="round"/>
        <path d="M9.79648 7.40622L6.91031 9.15987C5.22976 10.1828 4.71828 12.247 5.53116 13.891L7.40351 17.7087C8.00632 18.9418 9.46768 19.371 10.6368 18.6495L16.5095 15.0783C17.6878 14.3659 17.9709 12.8772 17.158 11.772L14.6281 8.35613C13.532 6.87651 11.477 6.38327 9.79648 7.40622Z" stroke-width="1.34809" stroke-linecap="round" stroke-linejoin="round"/>
        <path d="M8.82505 3.69572L4.14453 6.5459L6.04465 9.66624L10.7252 6.81607L8.82505 3.69572Z" stroke-width="1.34809" stroke-linecap="round" stroke-linejoin="round"/>
        <path d="M12.0703 14.3926L13.5773 16.8678" stroke-width="1.34809" stroke-linecap="round" stroke-linejoin="round"/>
        <path d="M9.73047 15.8174L11.2375 18.2926" stroke-width="1.34809" stroke-linecap="round" stroke-linejoin="round"/>
        <path d="M14.4082 12.9678L15.9152 15.443" stroke-width="1.34809" stroke-linecap="round" stroke-linejoin="round"/>
    </symbol>
    <symbol id="block" xmlns="http://www.w3.org/2000/svg" viewBox="0 0 20 20">
        <path d="M10.0001 18.9669C9.09176 18.9669 8.19176 18.7003 7.48343 18.1753L6.15843 17.1836C5.88343 16.9753 5.8251 16.5836 6.03343 16.3086C6.24176 16.0336 6.63343 15.9753 6.90843 16.1836L8.23343 17.1753C9.19176 17.8919 10.8168 17.8919 11.7751 17.1753L15.3584 14.5003C15.9918 14.0253 16.5418 12.9169 16.5418 12.1336V5.93359C16.5418 5.59193 16.8251 5.30859 17.1668 5.30859C17.5084 5.30859 17.7918 5.59193 17.7918 5.93359V12.1253C17.7918 13.3086 17.0501 14.7836 16.1001 15.4919L12.5168 18.1669C11.8084 18.7003 10.9084 18.9669 10.0001 18.9669Z" />
        <path d="M4.44232 15.7502C4.30898 15.7502 4.18398 15.7085 4.06732 15.6252L3.90065 15.5002C2.95065 14.7919 2.20898 13.3085 2.20898 12.1335V5.93353C2.20898 4.6502 3.15065 3.28353 4.35898 2.83353L8.51732 1.2752C9.34232 0.966862 10.6423 0.966862 11.4673 1.2752L15.634 2.83353C15.809 2.9002 15.9757 2.98353 16.1423 3.08353C16.434 3.26686 16.5257 3.6502 16.3423 3.94186C16.159 4.23353 15.7757 4.3252 15.484 4.14186C15.3923 4.08353 15.3006 4.03353 15.2007 4.0002L11.034 2.44186C10.484 2.23353 9.50898 2.23353 8.95898 2.44186L4.80065 4.00853C4.08398 4.2752 3.45898 5.1752 3.45898 5.94186V12.1335C3.45898 12.9252 4.01732 14.0335 4.64232 14.5002L4.80898 14.6252C5.08398 14.8335 5.14232 15.2252 4.93398 15.5002C4.82565 15.6585 4.63398 15.7502 4.44232 15.7502Z" />
        <path d="M1.66589 18.9585C1.50755 18.9585 1.34922 18.9002 1.22422 18.7752C0.982552 18.5335 0.982552 18.1335 1.22422 17.8919L17.8909 1.2252C18.1326 0.983529 18.5326 0.983529 18.7742 1.2252C19.0159 1.46686 19.0159 1.86686 18.7742 2.10853L2.10755 18.7752C1.98255 18.9002 1.82422 18.9585 1.66589 18.9585Z" />
    </symbol>

    <symbol id="location" xmlns="http://www.w3.org/2000/svg" viewBox="0 0 24 24" >
        <path d="M20.6191 8.45C19.5691 3.83 15.5391 1.75 11.9991 1.75C11.9991 1.75 11.9991 1.75 11.9891 1.75C8.45912 1.75 4.41912 3.82 3.36912 8.44C2.19912 13.6 5.35912 17.97 8.21912 20.72C9.27912 21.74 10.6391 22.25 11.9991 22.25C13.3591 22.25 14.7191 21.74 15.7691 20.72C18.6291 17.97 21.7891 13.61 20.6191 8.45ZM11.9991 13.46C10.2591 13.46 8.84912 12.05 8.84912 10.31C8.84912 8.57 10.2591 7.16 11.9991 7.16C13.7391 7.16 15.1491 8.57 15.1491 10.31C15.1491 12.05 13.7391 13.46 11.9991 13.46Z"/>
    </symbol>
    <symbol id="camera" xmlns="http://www.w3.org/2000/svg" viewBox="0 0 24 24" >
        <path d="M18.0002 6C17.3902 6 16.8302 5.65 16.5502 5.11L15.8302 3.66C15.3702 2.75 14.1702 2 13.1502 2H10.8602C9.83017 2 8.63017 2.75 8.17017 3.66L7.45017 5.11C7.17017 5.65 6.61017 6 6.00017 6C3.83017 6 2.11017 7.83 2.25017 9.99L2.77017 18.25C2.89017 20.31 4.00017 22 6.76017 22H17.2402C20.0002 22 21.1002 20.31 21.2302 18.25L21.7502 9.99C21.8902 7.83 20.1702 6 18.0002 6ZM10.5002 7.25H13.5002C13.9102 7.25 14.2502 7.59 14.2502 8C14.2502 8.41 13.9102 8.75 13.5002 8.75H10.5002C10.0902 8.75 9.75017 8.41 9.75017 8C9.75017 7.59 10.0902 7.25 10.5002 7.25ZM12.0002 18.12C10.1402 18.12 8.62017 16.61 8.62017 14.74C8.62017 12.87 10.1302 11.36 12.0002 11.36C13.8702 11.36 15.3802 12.87 15.3802 14.74C15.3802 16.61 13.8602 18.12 12.0002 18.12Z/">
    </symbol>


    

</svg>