<svg width="50" height="50" viewBox="0 0 50 50" fill="none" xmlns="http://www.w3.org/2000/svg">
<g clip-path="url(#clip0_53_282)">
<path d="M36.0266 3.93234C31.8989 0.578039 26.5036 -0.712977 21.2232 0.390343C14.6245 1.76915 9.24086 7.17608 7.82679 13.8449C6.63451 19.4682 8.10375 25.1137 11.8578 29.3339C13.7198 31.4271 14.7452 34.0455 14.7452 36.7145V39.6442C14.7452 41.5538 15.9699 43.182 17.6748 43.7867V45.6012C17.6748 48.0243 19.6462 49.9957 22.0694 49.9957H27.9287C30.3519 49.9957 32.3233 48.0243 32.3233 45.6012V43.7867C34.0283 43.182 35.253 41.5538 35.253 39.6442V36.7145C35.253 34.0797 36.3088 31.4241 38.2258 29.237C41.0319 26.0358 42.5772 21.9283 42.5772 17.6715C42.5772 12.3232 40.1896 7.31534 36.0266 3.93234ZM29.3936 45.6012C29.3936 46.4089 28.7365 47.066 27.9287 47.066H22.0694C21.2617 47.066 20.6045 46.4089 20.6045 45.6012V44.0387H29.3936V45.6012ZM32.3233 39.6442C32.3233 40.4519 31.6661 41.109 30.8584 41.109H19.1397C18.332 41.109 17.6748 40.4519 17.6748 39.6442V38.1793H32.3233V39.6442ZM24.9991 24.8665C25.9882 24.8665 26.9772 24.7083 27.9287 24.3943V35.2497H22.0694V24.3943C23.0209 24.7083 24.0098 24.8665 24.9991 24.8665ZM22.5503 21.4499L24.9991 16.5525L27.4478 21.4498C25.8781 22.0957 24.1201 22.0957 22.5503 21.4499ZM36.0227 27.306C33.9859 29.6297 32.7303 32.4054 32.4068 35.2496H30.8584V22.0763C30.8584 22.0743 30.8584 22.0725 30.8584 22.0705C30.8584 21.8706 30.8152 21.6504 30.7177 21.4436C30.7126 21.4328 30.709 21.4216 30.7037 21.411L26.3092 12.622C26.0611 12.1257 25.5538 11.8122 24.999 11.8122C24.4441 11.8122 23.937 12.1257 23.6887 12.622L19.2942 21.411C19.1972 21.6054 19.1396 21.8417 19.1396 22.0694C19.1396 22.0721 19.1396 22.0746 19.1396 22.0773V35.2497H17.595C17.2809 32.3858 16.0487 29.6373 14.0468 27.3868C10.9182 23.8696 9.69564 19.1554 10.6928 14.4526C11.8698 8.90187 16.3424 4.40314 21.8224 3.25812C26.2353 2.33605 30.739 3.41056 34.1789 6.20597C37.6543 9.03019 39.6475 13.2092 39.6475 17.6715C39.6475 21.2176 38.3602 24.6392 36.0227 27.306Z" fill="#020D0B"/>
<path d="M4.39453 17.6709H1.46484C0.655859 17.6709 0 18.3268 0 19.1357C0 19.9447 0.655859 20.6006 1.46484 20.6006H4.39453C5.20352 20.6006 5.85938 19.9447 5.85938 19.1357C5.85938 18.3268 5.20352 17.6709 4.39453 17.6709Z" fill="#020D0B"/>
<path d="M5.0019 10.3473L2.93032 8.27573C2.35825 7.70366 1.43081 7.70366 0.85874 8.27573C0.28667 8.8478 0.28667 9.77524 0.85874 10.3473L2.93032 12.4189C3.50249 12.9911 4.42993 12.9909 5.0019 12.4189C5.57397 11.8468 5.57397 10.9194 5.0019 10.3473Z" fill="#020D0B"/>
<path d="M5.00183 25.8539C4.42976 25.2818 3.50232 25.2818 2.93025 25.8539L0.858667 27.9254C0.286694 28.4975 0.286694 29.425 0.858667 29.997C1.43064 30.569 2.35808 30.5691 2.93025 29.997L5.00183 27.9254C5.5738 27.3534 5.5738 26.4259 5.00183 25.8539Z" fill="#020D0B"/>
<path d="M48.5352 17.6709H45.6055C44.7965 17.6709 44.1406 18.3268 44.1406 19.1357C44.1406 19.9447 44.7965 20.6006 45.6055 20.6006H48.5352C49.3441 20.6006 50 19.9447 50 19.1357C50 18.3268 49.3441 17.6709 48.5352 17.6709Z" fill="#020D0B"/>
<path d="M49.1425 8.27573C48.5706 7.70366 47.643 7.70366 47.0709 8.27573L44.9994 10.3473C44.4273 10.9194 44.4273 11.8468 44.9994 12.4189C45.5713 12.991 46.4989 12.991 47.0709 12.4189L49.1425 10.3473C49.7146 9.77524 49.7146 8.8478 49.1425 8.27573Z" fill="#020D0B"/>
<path d="M49.1426 27.9254L47.071 25.8539C46.4991 25.2818 45.5716 25.2818 44.9994 25.8539C44.4272 26.4259 44.4273 27.3534 44.9994 27.9254L47.071 29.997C47.6429 30.5691 48.5705 30.5691 49.1426 29.997C49.7146 29.425 49.7146 28.4975 49.1426 27.9254Z" fill="#020D0B"/>
</g>
<defs>
<clipPath id="clip0_53_282">
<rect width="50" height="50" fill="white"/>
</clipPath>
</defs>
</svg>
