<svg width="50" height="50" viewBox="0 0 50 50" fill="none" xmlns="http://www.w3.org/2000/svg">
<path d="M45.6055 11.8164H44.1406V10.3516C44.1406 7.92842 42.1692 5.95703 39.7461 5.95703H7.32422C4.90107 5.95703 2.92969 7.92842 2.92969 10.3516V35.2539H1.46484C0.655859 35.2539 0 35.9098 0 36.7188V39.6484C0 42.0716 1.97139 44.043 4.39453 44.043H45.6055C48.0286 44.043 50 42.0716 50 39.6484V16.2109C50 13.7878 48.0286 11.8164 45.6055 11.8164ZM5.85938 10.3516C5.85938 9.54385 6.5165 8.88672 7.32422 8.88672H39.7461C40.5538 8.88672 41.2109 9.54385 41.2109 10.3516V11.8164H33.8867C31.4636 11.8164 29.4922 13.7878 29.4922 16.2109V35.2539H5.85938V10.3516ZM2.92969 39.6484V38.1836H29.4922V39.6484C29.4922 40.1619 29.5815 40.6548 29.7441 41.1133H4.39453C3.58682 41.1133 2.92969 40.4562 2.92969 39.6484ZM47.0703 39.6484C47.0703 40.4562 46.4132 41.1133 45.6055 41.1133H33.8867C33.079 41.1133 32.4219 40.4562 32.4219 39.6484V16.2109C32.4219 15.4032 33.079 14.7461 33.8867 14.7461H45.6055C46.4132 14.7461 47.0703 15.4032 47.0703 16.2109V39.6484Z" fill="#020D0B"/>
<path d="M41.2109 35.2539H38.2812C37.4723 35.2539 36.8164 35.9098 36.8164 36.7188C36.8164 37.5277 37.4723 38.1836 38.2812 38.1836H41.2109C42.0199 38.1836 42.6758 37.5277 42.6758 36.7188C42.6758 35.9098 42.0199 35.2539 41.2109 35.2539Z" fill="#020D0B"/>
<path d="M39.7461 20.6055C40.5551 20.6055 41.2109 19.9496 41.2109 19.1406C41.2109 18.3316 40.5551 17.6758 39.7461 17.6758C38.9371 17.6758 38.2812 18.3316 38.2812 19.1406C38.2812 19.9496 38.9371 20.6055 39.7461 20.6055Z" fill="#020D0B"/>
</svg>
