<svg width="41" height="42" viewBox="0 0 41 42" fill="none" xmlns="http://www.w3.org/2000/svg">
<g clip-path="url(#clip0_811_911)">
<path d="M20.4698 16.7002L22.7977 24.1827H18.1582L20.4698 16.7002Z" fill="white"/>
<path d="M37.7632 0.942383H3.23684C2.37838 0.942383 1.55507 1.28341 0.948049 1.89043C0.341023 2.49746 0 3.32076 0 4.17922L0 38.7055C0 39.564 0.341023 40.3873 0.948049 40.9943C1.55507 41.6014 2.37838 41.9424 3.23684 41.9424H37.7632C38.6216 41.9424 39.4449 41.6014 40.052 40.9943C40.659 40.3873 41 39.564 41 38.7055V4.17922C41 3.32076 40.659 2.49746 40.052 1.89043C39.4449 1.28341 38.6216 0.942383 37.7632 0.942383ZM25.3013 32.2319L24.0416 28.1858H16.9125L15.669 32.2319H10.1097L18.0238 10.6529H22.9276L30.9011 32.2319H25.3013Z" fill="white"/>
</g>
<defs>
<clipPath id="clip0_811_911">
<rect width="41" height="41" fill="white" transform="translate(0 0.942383)"/>
</clipPath>
</defs>
</svg>
