<svg width="41" height="42" viewBox="0 0 41 42" fill="none" xmlns="http://www.w3.org/2000/svg">
<g clip-path="url(#clip0_805_830)">
<path d="M22.162 19.8679H15.3281V13.2622H22.162C23.3007 13.2622 24.172 13.5104 24.7749 13.9989C25.3771 14.4882 25.679 15.3394 25.679 16.5446C25.679 17.6169 25.3443 18.4345 24.674 19.0102C24.0038 19.5868 23.167 19.8679 22.162 19.8679Z" fill="white"/>
<path d="M26.7505 26.5612C26.7505 27.7671 26.3957 28.7049 25.6926 29.3615C24.996 30.0246 24.0038 30.3529 22.7313 30.3529H15.3281V22.876H22.7313C24.0038 22.876 24.9823 23.1843 25.6926 23.8273C26.4021 24.4703 26.7505 25.3752 26.7505 26.5612Z" fill="white"/>
<path d="M34.1669 0.942383H6.83307C3.075 0.942383 0 4.01738 0 7.77545V35.1093C0 38.8674 3.075 41.9424 6.83307 41.9424H34.1669C37.925 41.9424 41 38.8674 41 35.1093V7.77545C41 4.01738 37.925 0.942383 34.1669 0.942383ZM30.4353 29.7297C30.0998 30.5465 29.5777 31.2504 28.861 31.8397C28.1443 32.4291 27.233 32.8984 26.1143 33.2467C24.9956 33.595 23.6687 33.7688 22.128 33.7688H11.1413V9.85268H22.7646C24.9083 9.85268 26.63 10.342 27.9232 11.3261C29.2157 12.3111 29.8659 13.7917 29.8659 15.7817C29.8659 16.9876 29.5713 18.019 28.9811 18.8767C28.3917 19.7343 27.5477 20.4038 26.449 20.873V20.9403C27.9232 21.255 29.0419 21.9517 29.7987 23.0303C30.5554 24.1154 30.9374 25.4687 30.9374 27.1031C30.9374 28.0416 30.77 28.9185 30.4353 29.7297Z" fill="white"/>
</g>
<defs>
<clipPath id="clip0_805_830">
<rect width="41" height="41" fill="white" transform="translate(0 0.942383)"/>
</clipPath>
</defs>
</svg>
