<svg width="43" height="44" viewBox="0 0 43 44" fill="none" xmlns="http://www.w3.org/2000/svg">
<g clip-path="url(#clip0_805_844)">
<path d="M42.1312 6.10159C42.0508 5.89803 41.8654 5.75479 41.6481 5.72821C41.4314 5.70174 41.2166 5.7961 41.0895 5.97428C40.3349 7.03229 39.3447 7.38497 38.1976 7.79338C37.2726 8.12286 36.3161 8.46329 35.2824 9.20546C33.8205 10.255 33.1517 11.6857 33.4852 13.0418L33.4496 13.0874C32.8391 12.2018 32.1749 11.3827 31.4739 10.6513C28.1943 7.22929 23.6118 5.17198 18.9008 5.00704C18.6933 4.99978 18.4824 4.99609 18.2739 4.99609C13.0136 4.99609 7.97865 7.34764 4.4602 11.4476C0.960153 15.5264 -0.591185 20.836 0.204143 26.015C0.270636 26.4479 0.353852 26.8853 0.4517 27.3153C1.74533 33.0092 5.04938 37.3407 9.51675 39.1987C10.618 39.6568 11.7287 39.8889 12.8178 39.8889C15.5236 39.8889 17.887 38.4417 19.3022 35.9184C19.8401 34.9582 20.1872 33.9653 20.3334 32.9669C20.4196 32.3776 20.3607 31.7888 20.3036 31.2183C20.2447 30.631 20.1892 30.0759 20.2781 29.5171C20.4818 28.2361 21.3766 27.4712 22.6717 27.4712C23.0401 27.4712 23.4166 27.5319 23.7926 27.6516C23.3524 28.4589 22.9526 29.2297 22.6033 29.9442C21.8631 31.4584 21.3524 32.7125 21.0852 33.671C20.9204 34.2622 20.4827 35.8332 21.55 36.574C21.8889 36.8092 22.3187 36.8923 22.7659 36.809C23.1689 36.7342 24.3953 36.5063 27.8801 32.5392C28.8154 31.4746 29.8232 30.2426 30.8766 28.8767C33.581 27.9659 35.6855 25.6992 36.2422 23.0947C36.3815 22.4436 36.4397 21.7468 36.4149 21.023C37.4274 19.4582 38.3155 17.9982 39.2092 16.4286C39.2263 16.3984 39.2432 16.3661 39.2599 16.3331C40.5571 15.9778 41.6742 14.9684 42.33 13.5568C43.2874 11.4966 43.2168 8.84881 42.1312 6.10159ZM27.5115 15.8571C27.0424 16.6021 26.236 17.047 25.3541 17.047C24.8754 17.047 24.407 16.9115 23.9999 16.6551C23.4244 16.2925 23.0241 15.7277 22.8735 15.0644C22.7229 14.4012 22.8392 13.7188 23.2018 13.1432C23.671 12.3981 24.4775 11.9533 25.3593 11.9533C25.8382 11.9533 26.3064 12.0888 26.7135 12.3453C27.289 12.7076 27.6892 13.2725 27.8399 13.9358C27.9905 14.5992 27.8739 15.2814 27.5115 15.8571ZM30.8169 20.4711C32.1044 18.5741 33.4659 16.6885 34.7591 15.0113C34.9688 15.2006 35.2032 15.3855 35.4571 15.5617C35.8779 15.8537 36.3179 16.0794 36.7675 16.234C35.6756 18.1012 34.5016 19.9511 33.0802 22.0447C30.7447 25.4859 28.3163 28.6825 26.2422 31.0455C25.0838 32.3655 24.07 33.3846 23.2888 34.0157C23.5903 33.0512 24.1665 31.7274 24.9685 30.1589C26.4026 27.3542 28.4796 23.9137 30.8169 20.4711ZM8.21267 20.4547C7.73378 20.4547 7.26545 20.3193 6.85823 20.0627C6.28268 19.7003 5.88263 19.1356 5.73193 18.4722C5.58122 17.8088 5.69788 17.1265 6.06051 16.5509C6.52944 15.8059 7.33592 15.361 8.21765 15.361C8.69664 15.361 9.16498 15.4965 9.5721 15.753C10.7602 16.5014 11.1182 18.0768 10.3703 19.2647C9.90088 20.0099 9.0943 20.4547 8.21267 20.4547ZM5.5432 26.0624C6.01233 25.3172 6.81871 24.8723 7.70054 24.8723C8.17933 24.8723 8.64757 25.0079 9.05489 25.2643C9.63043 25.6268 10.0305 26.1916 10.1812 26.8549C10.332 27.518 10.2153 28.2003 9.8526 28.7761C9.38367 29.521 8.57719 29.9659 7.69546 29.9659C7.21657 29.9659 6.74813 29.8305 6.34081 29.5739C5.76527 29.2114 5.36532 28.6467 5.21471 27.9834C5.06421 27.3202 5.18097 26.6379 5.5432 26.0624ZM13.6987 10.9378C14.1679 10.1927 14.9744 9.74786 15.8561 9.74786C16.3348 9.74786 16.8031 9.88333 17.2102 10.1398C18.3985 10.8879 18.7564 12.4634 18.0085 13.6515C17.5391 14.3967 16.7326 14.8415 15.8509 14.8415C15.3721 14.8415 14.9038 14.7061 14.4967 14.4496C13.9212 14.0872 13.5213 13.5224 13.3706 12.859C13.2197 12.1958 13.3363 11.5135 13.6987 10.9378Z" fill="white"/>
</g>
<defs>
<clipPath id="clip0_805_844">
<rect width="43" height="43" fill="white" transform="translate(0 0.942383)"/>
</clipPath>
</defs>
</svg>
