<svg width="41" height="42" viewBox="0 0 41 42" fill="none" xmlns="http://www.w3.org/2000/svg">
<g clip-path="url(#clip0_805_828)">
<path d="M37.1919 0.942383H3.80645C3.00674 0.942383 2.40676 1.6191 2.47732 2.41872L5.52667 36.5902C5.59731 37.3893 6.2884 38.2255 7.06354 38.4415L19.0845 41.7806C19.8586 41.9952 21.1239 41.9966 21.8991 41.7834L33.9349 38.449C34.7103 38.2336 35.4013 37.4049 35.4719 36.6045L38.5226 2.41872C38.5931 1.6191 37.9957 0.942383 37.1919 0.942383ZM31.4019 13.2773C31.4014 13.2826 31.3973 13.2867 31.3922 13.2875C31.387 13.2884 31.3819 13.2857 31.3796 13.2808L21.9615 17.1403C21.8274 17.1953 21.7509 17.3375 21.7788 17.4798C21.8069 17.622 21.9316 17.7246 22.0766 17.7246H29.4024C29.7921 17.7246 30.1633 17.8901 30.4239 18.1799C30.6845 18.4697 30.8097 18.8566 30.7683 19.244L29.6237 29.9816C29.5675 30.5084 29.2135 30.956 28.7137 31.1318L20.938 33.8678C20.6451 33.9709 20.3259 33.9717 20.0324 33.87L12.293 31.1891C11.7901 31.0149 11.4331 30.566 11.3766 30.0369L10.8577 25.174C10.8305 24.9187 10.913 24.6638 11.0845 24.473C11.2562 24.282 11.5008 24.173 11.7576 24.173H13.9113C14.3741 24.173 14.7622 24.522 14.8111 24.9821L15.1295 27.9712L20.4883 29.8339L25.8716 27.9542L26.53 21.755H11.3091C10.8477 21.755 10.4602 21.4078 10.4096 20.9492L10.1198 18.3218C10.0755 17.9211 10.3017 17.5394 10.6743 17.3859L20.4158 13.3696C20.5263 13.324 20.5891 13.2069 20.566 13.0896C20.5427 12.9725 20.44 12.8881 20.3206 12.8881H10.0641C9.75533 12.8881 9.49637 12.6549 9.46414 12.3479L9.16747 9.52392C9.14961 9.35398 9.20475 9.18439 9.31912 9.0573C9.43348 8.9303 9.59646 8.85774 9.76736 8.85774H31.2281C31.3999 8.85774 31.5636 8.93108 31.6781 9.05922C31.7925 9.18743 31.8469 9.35833 31.8274 9.52906L31.4019 13.2773Z" fill="white"/>
</g>
<defs>
<clipPath id="clip0_805_828">
<rect width="41" height="41" fill="white" transform="translate(0 0.942383)"/>
</clipPath>
</defs>
</svg>
