<svg width="57" height="58" viewBox="0 0 57 58" fill="none" xmlns="http://www.w3.org/2000/svg">
<path d="M28.5 43.6924C25.6816 43.6924 22.9265 42.8566 20.5831 41.2908C18.2397 39.725 16.4133 37.4995 15.3347 34.8956C14.2562 32.2918 13.974 29.4266 14.5238 26.6624C15.0737 23.8981 16.4308 21.359 18.4237 19.3661C20.4166 17.3732 22.9557 16.016 25.72 15.4662C28.4842 14.9164 31.3494 15.1986 33.9532 16.2771C36.5571 17.3557 38.7826 19.1821 40.3484 21.5255C41.9143 23.8689 42.75 26.624 42.75 29.4424C42.75 33.2217 41.2487 36.8463 38.5763 39.5187C35.9039 42.1911 32.2793 43.6924 28.5 43.6924ZM28.5 19.9424C26.6211 19.9424 24.7844 20.4996 23.2221 21.5434C21.6598 22.5873 20.4422 24.071 19.7232 25.8069C19.0041 27.5428 18.816 29.4529 19.1825 31.2957C19.5491 33.1386 20.4539 34.8313 21.7825 36.1599C23.1111 37.4885 24.8038 38.3933 26.6466 38.7599C28.4895 39.1264 30.3996 38.9383 32.1355 38.2192C33.8714 37.5002 35.3551 36.2826 36.399 34.7203C37.4428 33.158 38 31.3213 38 29.4424C38 26.9228 36.9991 24.5065 35.2175 22.7249C33.4359 20.9433 31.0196 19.9424 28.5 19.9424Z" fill="white"/>
<path d="M28.5 36.5674C27.8701 36.5674 27.266 36.3172 26.8206 35.8718C26.3752 35.4264 26.125 34.8223 26.125 34.1924V24.6924C26.125 24.0625 26.3752 23.4584 26.8206 23.013C27.266 22.5676 27.8701 22.3174 28.5 22.3174C30.3897 22.3174 32.2019 23.068 33.5381 24.4042C34.8743 25.7404 35.625 27.5527 35.625 29.4424C35.625 31.3321 34.8743 33.1443 33.5381 34.4805C32.2019 35.8167 30.3897 36.5674 28.5 36.5674Z" fill="white"/>
<path d="M28.5 12.8174C27.8701 12.8174 27.266 12.5672 26.8206 12.1218C26.3752 11.6764 26.125 11.0723 26.125 10.4424V8.06738C26.125 7.43749 26.3752 6.8334 26.8206 6.388C27.266 5.94261 27.8701 5.69238 28.5 5.69238C29.1299 5.69238 29.734 5.94261 30.1794 6.388C30.6248 6.8334 30.875 7.43749 30.875 8.06738V10.4424C30.875 11.0723 30.6248 11.6764 30.1794 12.1218C29.734 12.5672 29.1299 12.8174 28.5 12.8174Z" fill="white"/>
<path d="M41.9427 18.3747C41.3527 18.348 40.7939 18.1025 40.3752 17.686C39.9329 17.241 39.6846 16.639 39.6846 16.0116C39.6846 15.3841 39.9329 14.7822 40.3752 14.3372L42.0615 12.651C42.2744 12.4023 42.5364 12.2004 42.831 12.0579C43.1257 11.9153 43.4466 11.8352 43.7737 11.8226C44.1008 11.8099 44.427 11.8651 44.7317 11.9845C45.0365 12.1039 45.3133 12.285 45.5448 12.5164C45.7762 12.7479 45.9573 13.0247 46.0767 13.3294C46.1961 13.6342 46.2512 13.9604 46.2386 14.2875C46.226 14.6146 46.1459 14.9355 46.0033 15.2301C45.8607 15.5248 45.6588 15.7868 45.4102 15.9997L43.724 17.686C43.4909 17.9178 43.2122 18.0987 42.9056 18.2173C42.599 18.3358 42.2711 18.3894 41.9427 18.3747Z" fill="white"/>
<path d="M49.875 31.8174H47.5C46.8701 31.8174 46.266 31.5672 45.8206 31.1218C45.3752 30.6764 45.125 30.0723 45.125 29.4424C45.125 28.8125 45.3752 28.2084 45.8206 27.763C46.266 27.3176 46.8701 27.0674 47.5 27.0674H49.875C50.5049 27.0674 51.109 27.3176 51.5544 27.763C51.9998 28.2084 52.25 28.8125 52.25 29.4424C52.25 30.0723 51.9998 30.6764 51.5544 31.1218C51.109 31.5672 50.5049 31.8174 49.875 31.8174Z" fill="white"/>
<path d="M43.6047 46.9225C42.9816 46.9199 42.3845 46.6726 41.9422 46.2338L40.3747 44.5475C40.1237 44.0963 40.0266 43.5756 40.0981 43.0643C40.1696 42.5529 40.4057 42.0788 40.7708 41.7137C41.1359 41.3486 41.61 41.1124 42.1214 41.0409C42.6327 40.9695 43.1535 41.0666 43.6047 41.3175L45.2909 43.0038C45.7333 43.4488 45.9815 44.0507 45.9815 44.6782C45.9815 45.3056 45.7333 45.9076 45.2909 46.3525C44.824 46.754 44.2194 46.9583 43.6047 46.9225Z" fill="white"/>
<path d="M28.5 53.1924C27.8701 53.1924 27.266 52.9422 26.8206 52.4968C26.3752 52.0514 26.125 51.4473 26.125 50.8174V48.4424C26.125 47.8125 26.3752 47.2084 26.8206 46.763C27.266 46.3176 27.8701 46.0674 28.5 46.0674C29.1299 46.0674 29.734 46.3176 30.1794 46.763C30.6248 47.2084 30.875 47.8125 30.875 48.4424V50.8174C30.875 51.4473 30.6248 52.0514 30.1794 52.4968C29.734 52.9422 29.1299 53.1924 28.5 53.1924Z" fill="white"/>
<path d="M13.3954 46.9222C13.0829 46.924 12.773 46.8641 12.4837 46.7459C12.1943 46.6277 11.9311 46.4535 11.7092 46.2334C11.2668 45.7884 11.0186 45.1865 11.0186 44.5591C11.0186 43.9316 11.2668 43.3297 11.7092 42.8847L13.3954 41.3172C13.8498 40.9281 14.4342 40.7248 15.0319 40.7479C15.6297 40.771 16.1967 41.0187 16.6197 41.4417C17.0426 41.8647 17.2904 42.4317 17.3135 43.0294C17.3366 43.6272 17.1333 44.2116 16.7442 44.6659L15.0579 46.3522C14.597 46.7478 14.0021 46.9518 13.3954 46.9222Z" fill="white"/>
<path d="M9.5 31.8174H7.125C6.49511 31.8174 5.89102 31.5672 5.44562 31.1218C5.00022 30.6764 4.75 30.0723 4.75 29.4424C4.75 28.8125 5.00022 28.2084 5.44562 27.763C5.89102 27.3176 6.49511 27.0674 7.125 27.0674H9.5C10.1299 27.0674 10.734 27.3176 11.1794 27.763C11.6248 28.2084 11.875 28.8125 11.875 29.4424C11.875 30.0723 11.6248 30.6764 11.1794 31.1218C10.734 31.5672 10.1299 31.8174 9.5 31.8174Z" fill="white"/>
<path d="M15.0575 18.3749C14.4345 18.3723 13.8374 18.1249 13.395 17.6862L11.7088 15.9999C11.3197 15.5456 11.1164 14.9611 11.1395 14.3634C11.1626 13.7657 11.4103 13.1987 11.8333 12.7757C12.2563 12.3527 12.8233 12.1049 13.421 12.0818C14.0188 12.0588 14.6032 12.2621 15.0575 12.6512L16.7438 14.3374C17.1861 14.7824 17.4344 15.3843 17.4344 16.0118C17.4344 16.6392 17.1861 17.2412 16.7438 17.6862C16.5219 17.9063 16.2587 18.0804 15.9693 18.1986C15.6799 18.3168 15.3701 18.3767 15.0575 18.3749Z" fill="white"/>
</svg>
