<svg width="41" height="42" viewBox="0 0 41 42" fill="none" xmlns="http://www.w3.org/2000/svg">
<g clip-path="url(#clip0_811_882)">
<path d="M8.48828 41.9424H32.5117C34.4988 41.9424 36.1152 40.3259 36.1152 38.3389V12.9541H27.707C25.72 12.9541 24.1035 11.3376 24.1035 9.35059V0.942383H8.48828C6.50122 0.942383 4.88477 2.55884 4.88477 4.5459V38.3389C4.88477 40.3259 6.50122 41.9424 8.48828 41.9424ZM13.293 17.8389H27.707C28.371 17.8389 28.9082 18.3761 28.9082 19.04C28.9082 19.704 28.371 20.2412 27.707 20.2412H13.293C12.629 20.2412 12.0918 19.704 12.0918 19.04C12.0918 18.3761 12.629 17.8389 13.293 17.8389ZM13.293 22.6436H27.707C28.371 22.6436 28.9082 23.1808 28.9082 23.8447C28.9082 24.5087 28.371 25.0459 27.707 25.0459H13.293C12.629 25.0459 12.0918 24.5087 12.0918 23.8447C12.0918 23.1808 12.629 22.6436 13.293 22.6436ZM13.293 27.4482H27.707C28.371 27.4482 28.9082 27.9855 28.9082 28.6494C28.9082 29.3133 28.371 29.8506 27.707 29.8506H13.293C12.629 29.8506 12.0918 29.3133 12.0918 28.6494C12.0918 27.9855 12.629 27.4482 13.293 27.4482ZM13.293 32.2529H22.9023C23.5663 32.2529 24.1035 32.7902 24.1035 33.4541C24.1035 34.118 23.5663 34.6553 22.9023 34.6553H13.293C12.629 34.6553 12.0918 34.118 12.0918 33.4541C12.0918 32.7902 12.629 32.2529 13.293 32.2529Z" fill="white"/>
<path d="M27.707 10.5516H35.4114L26.5059 1.646V9.35039C26.5059 10.0131 27.0443 10.5516 27.707 10.5516Z" fill="white"/>
</g>
<defs>
<clipPath id="clip0_811_882">
<rect width="41" height="41" fill="white" transform="translate(0 0.942383)"/>
</clipPath>
</defs>
</svg>
