<svg width="41" height="42" viewBox="0 0 41 42" fill="none" xmlns="http://www.w3.org/2000/svg">
<path d="M18.369 33.4427C17.858 33.4383 17.5272 33.1992 17.3471 32.6992C16.9874 31.701 16.6274 30.7029 16.2806 29.7002C16.2128 29.5042 16.122 29.4392 15.9114 29.4398C12.9558 29.4476 10.0001 29.4473 7.04447 29.4404C6.83658 29.44 6.73961 29.4975 6.67002 29.7001C6.33169 30.685 5.97791 31.6648 5.62396 32.6443C5.41079 33.2342 5.10297 33.4436 4.48004 33.4435C3.5143 33.4432 2.54864 33.4467 1.5829 33.4429C0.73391 33.4395 0.281949 32.8057 0.564625 32.0049C1.2814 29.9744 7.73786 11.8116 8.06002 10.9127C8.42629 9.89049 9.07485 9.42924 10.1536 9.42628C11.0412 9.4238 11.929 9.42348 12.8167 9.42644C13.8644 9.42996 14.5186 9.89329 14.8833 10.871C15.1027 11.4592 21.8029 30.3379 22.3849 31.9913C22.6741 32.8129 22.2275 33.438 21.3541 33.4432C20.8467 33.4463 18.8567 33.4469 18.369 33.4427ZM11.4708 16.3421C10.4905 19.0808 9.54114 21.7328 8.58277 24.4103H14.3732C13.4092 21.7306 12.4557 19.0801 11.4708 16.3421Z" fill="white"/>
<path d="M40.5091 16.5919C40.5091 15.8188 40.1147 15.4197 39.3433 15.4138C38.816 15.4103 38.2894 15.4121 37.7626 15.4121C36.9544 15.4121 36.6255 15.6859 36.4833 16.5117C36.3744 16.4579 36.289 16.4157 36.2041 16.3725C33.7491 15.1253 31.2613 15.0592 28.8249 16.3461C26.1299 17.77 24.6961 20.0647 24.5194 23.1149C24.4743 23.8927 24.5135 24.6751 24.5018 25.4552C24.4907 26.2523 24.5926 27.0383 24.8483 27.7868C25.8064 30.5947 27.7054 32.4288 30.5882 33.1967C32.1713 33.6181 33.7356 33.501 35.2614 32.914C35.6634 32.7596 36.0497 32.5659 36.4441 32.3902C36.5746 33.2002 37.1353 33.4805 37.7281 33.4589C38.2641 33.4401 38.802 33.4407 39.3381 33.4554C40.0432 33.4741 40.5214 32.979 40.5191 32.2779C40.5009 27.0494 40.5091 21.8203 40.5091 16.5919ZM35.5042 25.4201C35.5042 27.0804 34.1587 28.4265 32.4979 28.4265C30.8375 28.4265 29.4915 27.0804 29.4915 25.4201V23.428C29.4915 21.7671 30.8375 20.421 32.4979 20.421C33.3283 20.421 34.0797 20.7575 34.624 21.3018C35.1677 21.8461 35.5042 22.5975 35.5042 23.428V25.4201H35.5042Z" fill="white"/>
</svg>
