<svg width="46" height="47" viewBox="0 0 46 47" fill="none" xmlns="http://www.w3.org/2000/svg">
<path d="M34.8594 41.9111H34.1406C33.95 41.9111 33.7672 41.8354 33.6324 41.7006C33.4976 41.5658 33.4219 41.383 33.4219 41.1924C33.4219 41.0018 33.4976 40.8189 33.6324 40.6841C33.7672 40.5494 33.95 40.4736 34.1406 40.4736H34.8594C35.05 40.4736 35.2328 40.5494 35.3676 40.6841C35.5024 40.8189 35.5781 41.0018 35.5781 41.1924C35.5781 41.383 35.5024 41.5658 35.3676 41.7006C35.2328 41.8354 35.05 41.9111 34.8594 41.9111Z" fill="white"/>
<path d="M42.4062 8.12988V16.1152C41.9383 15.6359 41.3794 15.2549 40.7623 14.9945C40.1452 14.7341 39.4823 14.5995 38.8125 14.5986H28.75C27.7969 14.5986 26.8828 14.9773 26.2088 15.6512C25.5349 16.3252 25.1562 17.2393 25.1562 18.1924V27.5361H3.59375V8.12988C3.59375 7.17676 3.97238 6.26268 4.64634 5.58872C5.32029 4.91476 6.23438 4.53613 7.1875 4.53613H38.8125C39.7656 4.53613 40.6797 4.91476 41.3537 5.58872C42.0276 6.26268 42.4062 7.17676 42.4062 8.12988Z" fill="white"/>
<path d="M25.875 43.3486H16.6104L19.0757 36.1611H25.1563V41.1924C25.1521 41.9706 25.4047 42.7286 25.875 43.3486Z" fill="white"/>
<path d="M3.59375 28.9736V31.1299C3.59375 32.083 3.97238 32.9971 4.64634 33.671C5.32029 34.345 6.23438 34.7236 7.1875 34.7236H25.1562V28.9736H3.59375ZM23.7188 32.5674H22.2812C22.0906 32.5674 21.9078 32.4917 21.773 32.3569C21.6382 32.2221 21.5625 32.0393 21.5625 31.8486C21.5625 31.658 21.6382 31.4752 21.773 31.3404C21.9078 31.2056 22.0906 31.1299 22.2812 31.1299H23.7188C23.9094 31.1299 24.0922 31.2056 24.227 31.3404C24.3618 31.4752 24.4375 31.658 24.4375 31.8486C24.4375 32.0393 24.3618 32.2221 24.227 32.3569C24.0922 32.4917 23.9094 32.5674 23.7188 32.5674Z" fill="white"/>
<path d="M37.375 16.0361V16.7549C37.375 16.9455 37.2993 17.1283 37.1645 17.2631C37.0297 17.3979 36.8469 17.4736 36.6562 17.4736H32.3438C32.1531 17.4736 31.9703 17.3979 31.8355 17.2631C31.7007 17.1283 31.625 16.9455 31.625 16.7549V16.0361H37.375Z" fill="white"/>
<path d="M42.4062 39.0361V41.1924C42.4062 41.7643 42.1791 42.3127 41.7747 42.7171C41.3703 43.1215 40.8219 43.3486 40.25 43.3486H28.75C28.1781 43.3486 27.6297 43.1215 27.2253 42.7171C26.8209 42.3127 26.5938 41.7643 26.5938 41.1924V39.0361H42.4062Z" fill="white"/>
<path d="M42.4062 19.6299V37.5986H26.5938V18.1924C26.5938 17.6205 26.8209 17.0721 27.2253 16.6677C27.6297 16.2633 28.1781 16.0361 28.75 16.0361H30.1875V16.7549C30.1875 17.3268 30.4147 17.8752 30.8191 18.2796C31.2234 18.684 31.7719 18.9111 32.3438 18.9111H36.6562C37.2281 18.9111 37.7766 18.684 38.1809 18.2796C38.5853 17.8752 38.8125 17.3268 38.8125 16.7549V16.0361C39.7656 16.0361 40.6797 16.4148 41.3537 17.0887C42.0276 17.7627 42.4062 18.6768 42.4062 19.6299Z" fill="white"/>
</svg>
