<svg width="26" height="26" viewBox="0 0 26 26" fill="none" xmlns="http://www.w3.org/2000/svg">
<path d="M24.9516 11.3676L23.2516 9.39258C22.9266 9.01758 22.6641 8.31758 22.6641 7.81758V5.69258C22.6641 4.36758 21.5766 3.28008 20.2516 3.28008H18.1266C17.6391 3.28008 16.9266 3.01758 16.5516 2.69258L14.5766 0.992578C13.7141 0.255078 12.3016 0.255078 11.4266 0.992578L9.46406 2.70508C9.08906 3.01758 8.37656 3.28008 7.88906 3.28008H5.72656C4.40156 3.28008 3.31406 4.36758 3.31406 5.69258V7.83008C3.31406 8.31758 3.05156 9.01758 2.73906 9.39258L1.05156 11.3801C0.326563 12.2426 0.326563 13.6426 1.05156 14.5051L2.73906 16.4926C3.05156 16.8676 3.31406 17.5676 3.31406 18.0551V20.1926C3.31406 21.5176 4.40156 22.6051 5.72656 22.6051H7.88906C8.37656 22.6051 9.08906 22.8676 9.46406 23.1926L11.4391 24.8926C12.3016 25.6301 13.7141 25.6301 14.5891 24.8926L16.5641 23.1926C16.9391 22.8676 17.6391 22.6051 18.1391 22.6051H20.2641C21.5891 22.6051 22.6766 21.5176 22.6766 20.1926V18.0676C22.6766 17.5801 22.9391 16.8676 23.2641 16.4926L24.9641 14.5176C25.6891 13.6551 25.6891 12.2301 24.9516 11.3676ZM18.2016 10.5801L12.1641 16.6176C11.9891 16.7926 11.7516 16.8926 11.5016 16.8926C11.2516 16.8926 11.0141 16.7926 10.8391 16.6176L7.81406 13.5926C7.45156 13.2301 7.45156 12.6301 7.81406 12.2676C8.17656 11.9051 8.77656 11.9051 9.13906 12.2676L11.5016 14.6301L16.8766 9.25508C17.2391 8.89258 17.8391 8.89258 18.2016 9.25508C18.5641 9.61758 18.5641 10.2176 18.2016 10.5801Z" fill="#0DA487"/>
</svg>
