<svg width="46" height="47" viewBox="0 0 46 47" fill="none" xmlns="http://www.w3.org/2000/svg">
<g clip-path="url(#clip0_805_837)">
<path d="M45.9801 30.4175C45.848 29.3466 45.3053 28.4176 44.3629 27.653C44.3512 27.6388 44.3382 27.6255 44.3242 27.6135L44.2766 27.5794L44.2614 27.5686L43.7609 27.2092L43.7439 27.1966L43.6801 27.1517C43.6567 27.138 43.6316 27.1275 43.6055 27.1203C42.0224 26.1778 39.4017 25.5174 35.392 26.9325C34.4351 25.3225 34.3264 24.0323 34.967 22.0558C35.0811 21.7117 34.9751 21.4844 34.6337 21.337C33.9473 21.045 33.0075 21.1942 32.3409 21.3703C32.03 21.4511 31.8432 21.6272 31.7839 21.894C31.3616 23.8706 30.1343 25.6765 28.9475 27.4194L28.8774 27.5219C28.1461 25.9711 28.2979 24.7699 28.8073 23.2651C28.9089 22.965 28.8289 22.7655 28.5477 22.6164C27.7624 22.2112 26.5846 22.4897 26.1156 22.6281C25.5208 22.8015 24.883 24.4088 24.1705 26.3332C23.9908 26.8175 23.8363 27.2317 23.7437 27.4248C23.5236 27.874 23.3134 28.3862 23.0906 28.9297C22.5875 30.1597 22.0205 31.5442 21.2101 32.4138C20.9155 31.7625 21.3791 30.7356 21.8292 29.7392C22.3619 28.5613 22.8651 27.4482 22.2856 26.7375C22.1939 26.6252 22.0803 26.5328 21.9515 26.466C21.8228 26.3993 21.6818 26.3596 21.5372 26.3494C21.3485 26.335 21.1591 26.3658 20.9846 26.4392C21.0448 25.9316 21.0475 25.5309 20.8993 25.0467C20.6873 24.3558 20.1365 23.9685 19.3782 23.9892C17.6514 24.0395 16.1906 25.3261 15.2679 26.397C14.6533 27.1158 13.2913 27.6638 12.0955 28.1445C11.6229 28.3448 11.1737 28.5245 10.7991 28.7042C10.2016 28.1993 9.44241 27.6899 8.6428 27.1517C6.39671 25.6441 3.85144 23.9344 3.76339 21.6164C3.63761 18.1925 7.53683 15.764 10.9401 14.0309C13.5195 12.7192 15.762 11.8495 17.7961 11.3742C20.6531 10.7067 23.0663 10.8415 24.9674 11.7731C26.0078 12.2826 26.4948 13.3903 26.1857 14.5296C25.3771 17.4899 22.0268 19.5186 19.1617 20.4314C17.4358 20.9812 15.9669 21.2112 14.6695 21.1358C13.0433 21.0414 11.7155 20.2256 11.1476 19.8779C11.0567 19.8158 10.9605 19.7617 10.8601 19.7162L10.8341 19.7099C10.7827 19.6971 10.7287 19.6988 10.6782 19.7146C10.6276 19.7305 10.5824 19.7599 10.5475 19.7998C10.4307 19.939 10.472 20.1592 10.5142 20.2706C11.0668 21.7144 12.2078 22.6263 13.905 22.9812C14.4604 23.0924 15.0258 23.1463 15.5922 23.142C19.5642 23.142 24.6323 20.8519 26.4939 18.966C27.7633 17.6813 28.6878 16.3606 29.0706 14.083C29.4704 11.6977 27.8532 10.0401 26.2055 9.27639C22.2011 7.4283 17.6532 8.15873 14.5428 9.0967C10.9042 10.1937 7.13972 12.1882 4.2162 14.5709C0.61167 17.5061 -0.691064 20.231 0.342139 22.6793C1.40319 25.1886 3.99069 26.7582 6.49284 28.2765C7.30143 28.7662 8.0705 29.2325 8.76319 29.714C8.55476 29.8156 8.34183 29.9189 8.1253 30.0222C6.02476 31.0401 3.6421 32.1856 2.3205 34.0786C1.36097 35.4577 1.18128 36.8306 1.78683 38.1593C2.11026 38.8664 2.68526 39.3462 3.48397 39.5852C3.89946 39.7029 4.32975 39.7601 4.76155 39.755C6.31675 39.755 8.02827 39.1261 8.95995 38.5448C10.6059 37.5116 11.6723 36.1244 12.1305 34.4219C12.5384 32.9071 12.4405 31.4022 11.8475 30.059L13.8645 29.042C12.8915 32.2764 13.6372 34.208 14.4566 35.2736C14.7585 35.6662 15.3029 35.9025 15.9112 35.9133C16.5194 35.924 17.0791 35.6949 17.3954 35.305C17.9937 34.5638 18.4358 33.6968 18.8428 32.8298C18.8212 33.3958 18.8482 33.969 19.0413 34.4551C19.2147 34.8926 19.5004 35.1828 19.8688 35.2942C20.2605 35.4137 20.7196 35.3131 21.1616 35.0112C23.1535 33.6483 24.5155 30.3771 25.6098 27.7474C25.7652 27.3736 25.9144 27.0142 26.059 26.6782C26.3297 27.6471 26.7064 28.5832 27.1821 29.4697C27.2881 29.6619 27.2791 29.7464 27.1353 29.9045C26.9188 30.1417 26.6169 30.4283 26.2971 30.732C25.3286 31.6511 24.1229 32.7984 23.9612 33.8073C23.8983 34.2116 24.1768 34.58 24.6089 34.6635C25.909 34.9223 27.4749 34.544 28.7992 33.6528C30.0032 32.8442 30.456 31.7167 30.1469 30.3115C29.8477 28.9585 30.5305 27.2784 32.1765 25.3144C32.446 26.4401 32.8054 27.3503 33.3013 28.1472L33.2878 28.1579C32.0893 29.2046 30.447 30.6376 30.7021 32.3761C30.7235 32.5414 30.7792 32.7005 30.8655 32.8431C30.9518 32.9858 31.0669 33.1088 31.2035 33.2045C31.3494 33.303 31.5141 33.3703 31.6873 33.4021C31.8604 33.434 32.0383 33.4297 32.2097 33.3895C33.7793 33.0598 34.9607 32.3959 35.8196 31.3618C36.6785 30.3277 36.365 29.1813 36.0757 28.2918C38.3218 27.6827 40.3217 27.6979 42.194 28.3367C43.2452 28.6961 43.999 29.2864 44.4339 30.1013C44.981 31.1264 44.6854 32.0724 43.5992 32.7651C43.2659 32.9781 43.1051 33.1083 43.0952 33.2727C43.093 33.3109 43.1 33.349 43.1156 33.3839C43.1313 33.4188 43.1551 33.4494 43.185 33.4731C43.3108 33.5764 43.6989 33.7561 44.5767 33.2036C45.3853 32.696 45.8597 32.0051 45.981 31.1372C46.0054 30.8979 46.0051 30.6567 45.9801 30.4175ZM10.0668 32.669L10.0578 32.784C9.91768 34.0993 9.24925 35.2457 8.0678 36.1981C7.32569 36.7964 6.51979 37.1639 5.79925 37.234C5.29612 37.2825 4.93046 37.2142 4.71304 37.03C4.55042 36.8926 4.46327 36.6868 4.44351 36.4011C4.29616 34.1119 7.88632 31.837 9.9069 31.0886C10.0511 31.6022 10.1052 32.1369 10.0668 32.669ZM19.2623 26.2128C18.9299 28.1076 17.9605 31.6843 16.4367 33.0724C16.364 33.1389 16.3029 33.1622 16.275 33.156C16.2472 33.1497 16.2256 33.1164 16.2032 33.0661C15.6946 31.8874 15.8824 29.8964 16.6524 28.3322C17.2444 27.1265 18.0899 26.3278 19.035 26.0861C19.0743 26.0753 19.1147 26.0696 19.1554 26.0691C19.1872 26.0668 19.2189 26.0754 19.2453 26.0933C19.2564 26.1109 19.2637 26.1307 19.2666 26.1513C19.2695 26.1719 19.2681 26.1928 19.2623 26.2128ZM26.7634 33.12C26.4768 33.4192 26.0842 33.3788 26.1767 33.2692L27.6358 31.7202C27.5181 32.253 27.1704 32.6942 26.7634 33.12ZM32.8162 31.7804C32.6774 31.8488 32.5273 31.8912 32.3732 31.9053C32.3319 31.0904 33.1216 30.1731 33.9006 29.5613C34.1099 30.4112 33.6814 31.3097 32.8162 31.7804Z" fill="white"/>
</g>
<defs>
<clipPath id="clip0_805_837">
<rect width="46" height="46" fill="white" transform="translate(0 0.942383)"/>
</clipPath>
</defs>
</svg>
