<svg width="42" height="43" viewBox="0 0 42 43" fill="none" xmlns="http://www.w3.org/2000/svg">
<g clip-path="url(#clip0_807_858)">
<path d="M21 9.96582C23.4918 9.96582 25.5117 7.94586 25.5117 5.4541C25.5117 2.96235 23.4918 0.942383 21 0.942383C18.5082 0.942383 16.4883 2.96235 16.4883 5.4541C16.4883 7.94586 18.5082 9.96582 21 9.96582Z" fill="white"/>
<path d="M12.8865 34.9819C11.613 36.3453 9.80142 37.2 7.79297 37.2C5.78452 37.2 3.97294 36.3453 2.6994 34.9819C1.07141 36.0899 0 37.9576 0 40.0711V41.7117C0 42.3912 0.550922 42.9422 1.23047 42.9422H14.3555C15.035 42.9422 15.5859 42.3912 15.5859 41.7117V40.0711C15.5859 37.9576 14.5145 36.0899 12.8865 34.9819Z" fill="white"/>
<path d="M39.3006 34.9819C38.0271 36.3453 36.2155 37.2 34.207 37.2C32.1986 37.2 30.387 36.3453 29.1135 34.9819C27.4855 36.0899 26.4141 37.9576 26.4141 40.0711V41.7117C26.4141 42.3912 26.965 42.9422 27.6445 42.9422H40.7695C41.4491 42.9422 42 42.3912 42 41.7117V40.0711C42 37.9576 40.9286 36.0899 39.3006 34.9819Z" fill="white"/>
<path d="M29.7545 30.9533C30.1028 33.097 31.9664 34.739 34.207 34.739C36.6948 34.739 38.7188 32.7151 38.7188 30.2273C38.7188 27.7396 36.6948 25.7156 34.207 25.7156C32.3428 25.7156 30.739 26.8522 30.0522 28.4689L24.6878 26.8029C24.6287 25.2611 23.6198 23.9591 22.2305 23.4663V18.1687H27.5625C28.242 18.1687 28.793 17.6178 28.793 16.9383V15.2976C28.793 13.1842 27.7216 11.3165 26.0936 10.2085C24.82 11.5719 23.0085 12.4265 21 12.4265C18.9915 12.4265 17.18 11.5719 15.9064 10.2085C14.2784 11.3165 13.207 13.1842 13.207 15.2976V16.9383C13.207 17.6178 13.758 18.1687 14.4375 18.1687H19.7695V23.4663C18.3802 23.9591 17.3714 25.261 17.3122 26.8029L11.9478 28.4689C11.261 26.8522 9.65721 25.7156 7.79297 25.7156C5.30521 25.7156 3.28125 27.7396 3.28125 30.2273C3.28125 32.7151 5.30521 34.739 7.79297 34.739C10.0336 34.739 11.8972 33.097 12.2455 30.9533L18.0426 29.153C18.7163 30.0535 19.7913 30.6375 21 30.6375C22.2087 30.6375 23.2837 30.0535 23.9574 29.1529L29.7545 30.9533Z" fill="white"/>
</g>
<defs>
<clipPath id="clip0_807_858">
<rect width="42" height="42" fill="white" transform="translate(0 0.942383)"/>
</clipPath>
</defs>
</svg>
