<svg width="45" height="46" viewBox="0 0 45 46" fill="none" xmlns="http://www.w3.org/2000/svg">
<g clip-path="url(#clip0_811_876)">
<path d="M35.8527 21.942C34.8189 21.942 33.9777 22.7832 33.9777 23.817V25.317C33.9777 25.7312 33.6418 26.067 33.2277 26.067C32.8136 26.067 32.4777 25.7312 32.4777 25.317V21.942C32.4777 20.9082 31.6365 20.067 30.6027 20.067C29.5688 20.067 28.7277 20.9082 28.7277 21.942V24.9421C28.7277 25.3563 28.3919 25.692 27.9777 25.692C27.5635 25.692 27.2278 25.3562 27.2278 24.9421V20.442C27.2278 19.4081 26.3866 18.567 25.3527 18.567C24.3188 18.567 23.4777 19.4082 23.4777 20.442V24.9421C23.4777 25.3563 23.1419 25.692 22.7278 25.692C22.3136 25.692 21.9778 25.3562 21.9778 24.9421V11.067C21.9778 10.0331 21.1366 9.19189 20.1028 9.19189C19.069 9.19189 18.2278 10.0331 18.2278 11.067V28.9602C18.2278 29.7713 17.7524 30.5166 17.0169 30.8586C16.0257 31.3204 14.8674 30.9531 14.3207 30.0076L12.0703 26.1092C11.1397 24.4978 9.07139 23.943 7.46001 24.874C7.34303 24.9414 7.30031 25.0453 7.28528 25.1013C7.27025 25.1573 7.25522 25.269 7.32281 25.3863L15.8018 40.0681C17.8939 43.6914 21.793 45.9422 25.9772 45.9422C32.4565 45.9422 37.7278 40.6709 37.7278 34.1915V23.8171C37.7277 22.7832 36.8865 21.942 35.8527 21.942Z" fill="white"/>
<path d="M20.1023 7.69214C20.5166 7.69214 20.8523 7.35631 20.8523 6.94217V3.50257L22.7595 5.4098C22.9059 5.55631 23.0979 5.62952 23.2898 5.62952C23.4816 5.62952 23.6738 5.55631 23.82 5.4098C24.113 5.11686 24.113 4.64225 23.82 4.34922L20.6331 1.16222C20.5982 1.12724 20.5596 1.09595 20.5184 1.06835C20.4995 1.0557 20.479 1.04699 20.4593 1.03627C20.4362 1.02362 20.4139 1.00964 20.3894 0.999446C20.3643 0.989075 20.3382 0.983098 20.3123 0.97554C20.2913 0.969387 20.2711 0.961213 20.2494 0.956819C20.1524 0.937571 20.0525 0.937571 19.9555 0.956819C19.9336 0.961213 19.9135 0.969387 19.8923 0.97554C19.8665 0.983098 19.8404 0.988987 19.8155 0.999358C19.7908 1.00955 19.7684 1.02362 19.7452 1.03636C19.7256 1.04708 19.7052 1.0557 19.6864 1.06835C19.6451 1.09595 19.6066 1.12724 19.5717 1.16222L16.3847 4.34922C16.0918 4.64216 16.0918 5.11677 16.3847 5.4098C16.6773 5.70274 17.1527 5.70274 17.4453 5.4098L19.3525 3.50257V6.94208C19.3524 7.35631 19.6882 7.69214 20.1023 7.69214Z" fill="white"/>
<path d="M16.7273 11.0674C16.7273 10.6531 16.3914 10.3174 15.9773 10.3174H12.538L14.4451 8.41016C14.738 8.11722 14.738 7.64261 14.4451 7.34959C14.1525 7.05665 13.6771 7.05665 13.3845 7.34959L10.1974 10.5366C10.1624 10.5716 10.1311 10.6102 10.1034 10.6515C10.0915 10.6694 10.0834 10.6886 10.0732 10.7072C10.0598 10.7314 10.0452 10.7548 10.0345 10.7806C10.0244 10.8049 10.0187 10.8303 10.0113 10.8555C10.0049 10.8772 9.99652 10.898 9.99204 10.9205C9.97271 11.0174 9.97271 11.1172 9.99204 11.2141C9.99652 11.2366 10.0049 11.2575 10.0113 11.2792C10.0187 11.3043 10.0245 11.3296 10.0345 11.3541C10.0451 11.3798 10.0598 11.4032 10.0732 11.4274C10.0834 11.446 10.0914 11.4653 10.1034 11.4831C10.131 11.5245 10.1624 11.5631 10.1974 11.598L13.3844 14.785C13.5308 14.9316 13.7228 15.0048 13.9147 15.0048C14.1066 15.0048 14.2987 14.9316 14.4449 14.785C14.7379 14.4921 14.7379 14.0175 14.4449 13.7245L12.5378 11.8172H15.9771C16.3914 11.8173 16.7273 11.4815 16.7273 11.0674Z" fill="white"/>
<path d="M25.7598 14.785C25.9061 14.9316 26.0982 15.0048 26.29 15.0048C26.4819 15.0048 26.674 14.9316 26.8203 14.785L30.0073 11.598C30.0424 11.5631 30.0736 11.5244 30.1013 11.4831C30.1132 11.4652 30.1214 11.446 30.1316 11.4274C30.1449 11.4032 30.1596 11.3798 30.1702 11.3541C30.1803 11.3297 30.1861 11.3043 30.1934 11.2792C30.1999 11.2575 30.2082 11.2366 30.2127 11.2141C30.232 11.1172 30.232 11.0174 30.2127 10.9205C30.2082 10.898 30.1999 10.8772 30.1934 10.8555C30.1861 10.8303 30.1803 10.805 30.1702 10.7806C30.1596 10.7548 30.1449 10.7314 30.1316 10.7072C30.1214 10.6886 30.1133 10.6693 30.1013 10.6515C30.0737 10.6102 30.0424 10.5716 30.0073 10.5366L26.8203 7.34959C26.5277 7.05665 26.0523 7.05665 25.7597 7.34959C25.4668 7.64253 25.4668 8.11714 25.7597 8.41016L27.6668 10.3174H24.2275C23.8133 10.3174 23.4775 10.6532 23.4775 11.0674C23.4775 11.4815 23.8134 11.8173 24.2275 11.8173H27.6668L25.7597 13.7246C25.4668 14.0175 25.4668 14.4921 25.7598 14.785Z" fill="white"/>
</g>
<defs>
<clipPath id="clip0_811_876">
<rect width="45" height="45" fill="white" transform="translate(0 0.942383)"/>
</clipPath>
</defs>
</svg>
