<svg width="42" height="43" viewBox="0 0 42 43" fill="none" xmlns="http://www.w3.org/2000/svg">
<g clip-path="url(#clip0_811_904)">
<path d="M1.23047 10.3132C1.91002 10.3132 2.46094 9.7623 2.46094 9.08275V3.40332H8.14037C8.81992 3.40332 9.37084 2.8524 9.37084 2.17285C9.37084 1.4933 8.81992 0.942383 8.14037 0.942383H1.23047C0.550922 0.942383 0 1.4933 0 2.17285V9.08275C0 9.76238 0.550922 10.3132 1.23047 10.3132Z" fill="white"/>
<path d="M40.7693 0.942383H33.8594C33.1798 0.942383 32.6289 1.4933 32.6289 2.17285C32.6289 2.8524 33.1798 3.40332 33.8594 3.40332H39.5388V9.08275C39.5388 9.7623 40.0897 10.3132 40.7693 10.3132C41.4488 10.3132 41.9997 9.7623 41.9997 9.08275V2.17285C41.9997 1.4933 41.4488 0.942383 40.7693 0.942383Z" fill="white"/>
<path d="M40.7693 33.5718C40.0897 33.5718 39.5388 34.1227 39.5388 34.8022V40.4817H33.8594C33.1798 40.4817 32.6289 41.0326 32.6289 41.7121C32.6289 42.3917 33.1798 42.9426 33.8594 42.9426H40.7693C41.4488 42.9426 41.9997 42.3917 41.9997 41.7121V34.8022C41.9997 34.1226 41.4488 33.5718 40.7693 33.5718Z" fill="white"/>
<path d="M8.14037 40.4817H2.46094V34.8022C2.46094 34.1227 1.91002 33.5718 1.23047 33.5718C0.550922 33.5718 0 34.1227 0 34.8022V41.7121C0 42.3917 0.550922 42.9426 1.23047 42.9426H8.14037C8.81992 42.9426 9.37084 42.3917 9.37084 41.7121C9.37084 41.0326 8.82 40.4817 8.14037 40.4817Z" fill="white"/>
<path d="M34.4257 16.6418V8.87094C34.4257 8.48539 34.1131 8.17285 33.7268 8.17285H21.0004H8.2741C7.88773 8.17285 7.5752 8.48539 7.5752 8.87094V16.6418C7.5752 17.0281 7.88773 17.3407 8.2741 17.3407H11.9852C12.3707 17.3407 12.6833 17.0281 12.6833 16.6418V13.9798C12.6833 13.5935 12.9966 13.2809 13.3822 13.2809H17.7471C18.1334 13.2809 18.446 13.5935 18.446 13.9798V33.1866C18.446 33.573 18.1334 33.8855 17.7471 33.8855H15.8382C15.4518 33.8855 15.1393 34.1981 15.1393 34.5844V38.2955C15.1393 38.6811 15.4518 38.9936 15.8382 38.9936H21.0004H26.1627C26.549 38.9936 26.8616 38.6811 26.8616 38.2955V34.5844C26.8616 34.1981 26.549 33.8855 26.1627 33.8855H24.2538C23.8674 33.8855 23.5549 33.573 23.5549 33.1866V13.9798C23.5549 13.5935 23.8674 13.2809 24.2538 13.2809H28.6187C29.0042 13.2809 29.3176 13.5935 29.3176 13.9798V16.6418C29.3176 17.0281 29.6301 17.3407 30.0157 17.3407H33.7268C34.1131 17.3407 34.4257 17.0281 34.4257 16.6418Z" fill="white"/>
</g>
<defs>
<clipPath id="clip0_811_904">
<rect width="42" height="42" fill="white" transform="translate(0 0.942383)"/>
</clipPath>
</defs>
</svg>
